<?xml version="1.0" encoding="UTF-8" standalone="no"?>
<!-- Created with Inkscape (http://www.inkscape.org/) -->

<svg
   width="127.70345mm"
   height="73.386917mm"
   viewBox="0 0 127.70345 73.386917"
   version="1.1"
   id="svg1"
   xml:space="preserve"
   xmlns="http://www.w3.org/2000/svg"
   xmlns:svg="http://www.w3.org/2000/svg"><defs
     id="defs1" /><g
     id="layer1"
     transform="translate(-41.148271,-118.02826)"><text
       xml:space="preserve"
       style="font-style:normal;font-variant:normal;font-weight:bold;font-stretch:normal;font-size:23.6269px;font-family:'MADE Tommy Soft';-inkscape-font-specification:'MADE Tommy Soft Bold';text-align:start;writing-mode:lr-tb;direction:ltr;text-anchor:start;fill:#ffffff;fill-rule:evenodd;stroke:none;stroke-width:1.072;stroke-linecap:round;stroke-linejoin:round;stroke-dasharray:none;paint-order:markers stroke fill"
       x="40.95927"
       y="186.64255"
       id="text1"><tspan
         style="font-style:normal;font-variant:normal;font-weight:bold;font-stretch:normal;font-family:'MADE Tommy Soft';-inkscape-font-specification:'MADE Tommy Soft Bold';fill:#ffffff;stroke:none;stroke-width:1.072;stroke-dasharray:none"
         x="40.95927"
         y="186.64255"
         id="tspan2">Agricultor+</tspan></text></g><g
     id="layer2"
     transform="translate(-41.148271,-118.02826)"><g
       id="g5"
       transform="matrix(3.5264896,0,0,3.5264896,-522.06413,-797.05995)"><path
         style="fill:#ffffff;stroke:#ffffff;stroke-width:0.467;stroke-linecap:round;stroke-dasharray:none;stroke-opacity:1"
         d="m 176.99148,268.26633 c -0.29505,-0.11343 -0.37237,-0.21592 -0.57521,-0.7625 -0.42321,-1.14038 -0.50866,-2.29249 -0.24593,-3.31631 0.19381,-0.7553 0.56186,-1.40222 1.13892,-2.00185 0.46555,-0.48379 1.00369,-0.87368 1.6992,-1.23113 0.68523,-0.35215 1.18719,-0.52844 2.53535,-0.89035 0.35739,-0.096 1.19589,-0.20571 1.33156,-0.25292 0.2302,-0.0801 0.25935,-0.0859 0.43577,-0.0873 0.17348,-0.002 0.19711,0.002 0.28609,0.0493 0.10727,0.0563 0.2167,0.17186 0.27152,0.28671 0.0578,0.12114 0.0846,0.28438 0.10413,0.63599 0.0101,0.18186 0.0261,0.45052 0.0353,0.59702 0.0224,0.35279 0.022,1.41028 -6.1e-4,1.74518 -0.0731,1.0772 -0.22428,1.87486 -0.49264,2.59937 -0.67085,1.95756 -2.25048,1.63106 -3.09263,3.05128 -0.30967,-0.0385 -0.85359,-0.20526 -0.79115,-0.24261 0.0143,-0.008 0.19745,-0.0445 0.40708,-0.0797 0.90042,-0.15184 1.15393,-0.91856 1.58835,-1.22186 0.70992,-0.49564 1.21648,-1.44481 1.46054,-2.73666 0.12329,-0.65262 0.16356,-1.07954 0.17506,-1.85648 0.007,-0.55485 0.005,-0.64896 -0.0356,-1.11058 -0.0244,-0.27741 -0.0444,-0.57295 -0.0444,-0.65674 0,-0.0838 -0.005,-0.15234 -0.0129,-0.1523 -0.007,2e-5 -0.14053,0.0417 -0.29652,0.0926 -0.156,0.0509 -0.93528,0.14317 -1.2,0.21405 -1.10356,0.29554 -1.73791,0.51762 -2.38073,0.83351 -1.33928,0.65811 -2.20746,1.65567 -2.50923,2.8832 -0.0872,0.3546 -0.11042,0.98429 -0.11042,0.98429 l 0.2341,1.45124 c 0,0 0.11229,0.33227 0.12269,0.39037 0.0104,0.0581 0.0234,0.10563 0.029,0.10563 0.005,0 0.0282,-0.0475 0.0502,-0.10563 0.30064,-0.72726 0.59763,0.41203 0.25062,0.78753 -0.0912,0.0442 -0.24924,0.0434 -0.3675,-0.002 z"
         id="path5" /><path
         d="m 178.61777,267.3109 c -0.2159,0.0493 -0.78387,-0.99192 -0.56063,-1.31407 0.32151,-0.46395 0.89257,-1.1008 1.40561,-1.5675 0.16543,-0.15051 0.38008,-0.34659 0.477,-0.43575 0.0969,-0.0891 0.1762,-0.15851 0.1762,-0.15413 0,0.0423 -0.1427,0.42717 -0.21728,0.58609 -0.17609,0.37525 -0.34084,0.64251 -0.89145,1.44615 -0.61079,0.89146 -0.95709,1.11678 -1.22403,1.66089"
         style="fill:#ffffff;stroke:#ffffff;stroke-width:0.167;stroke-linecap:round;stroke-dasharray:none;stroke-opacity:1"
         id="path1-5" /><text
         xml:space="preserve"
         style="font-style:normal;font-variant:normal;font-weight:900;font-stretch:normal;font-size:14.1111px;font-family:'MADE Tommy Soft';-inkscape-font-specification:'MADE Tommy Soft Heavy';text-align:start;writing-mode:lr-tb;direction:ltr;text-anchor:start;fill:#ffffff;fill-rule:evenodd;stroke:none;stroke-width:0.640001;stroke-linecap:round;stroke-linejoin:round;paint-order:markers stroke fill"
         x="170.6218"
         y="272.81613"
         id="text3"><tspan
           id="tspan3"
           style="stroke-width:0.64"
           x="170.6218"
           y="272.81613">a</tspan></text><text
         xml:space="preserve"
         style="font-style:normal;font-variant:normal;font-weight:900;font-stretch:normal;font-size:14.1111px;font-family:'MADE Tommy Soft';-inkscape-font-specification:'MADE Tommy Soft Heavy';text-align:start;writing-mode:lr-tb;direction:ltr;text-anchor:start;fill:#ffffff;fill-rule:evenodd;stroke:none;stroke-width:0.640001;stroke-linecap:round;stroke-linejoin:round;paint-order:markers stroke fill"
         x="177.99577"
         y="273.40601"
         id="text4"><tspan
           id="tspan4"
           style="stroke-width:0.64"
           x="177.99577"
           y="273.40601">+</tspan></text></g></g></svg>
