<svg xmlns="http://www.w3.org/2000/svg" viewBox="0 0 408.82 381.76"><defs><style>.cls-1,.cls-2{fill:none;stroke:#26211d;stroke-linecap:round;stroke-linejoin:round;}.cls-2{stroke-width:0.75px;}</style></defs><title>mão</title><g id="OBJECTS"><path class="cls-1" d="M424.82,437.85c-2.81-12.56-6.49-23.57-6.49-35.81,4.89-8.57,11-17.13,14.68-26.92,4.89-15.91,11-31.82,17.13-47.72,1.22-4.89,6.12-11,1.22-13.46-8.57-4.89-15.91,4.89-20.8,11-6.12,11-8.57,23.25-19.37,30.19" transform="translate(-45.19 -57.8)"/><path class="cls-1" d="M421.36,343.95c-2.43-3.23-1.61-6.25-2.13-10.26-1.19-9.24-5.12-17.9-7.12-27-1-4.73-1.56-9.57-2.9-14.22-1.06-3.69-2.63-7.22-3.71-10.9-2-6.75-2.34-14-4.92-20.5a9.65,9.65,0,0,0-3.39-4.8,5.85,5.85,0,0,0-7.82,1.79,10,10,0,0,0-1.17,4.68,43.9,43.9,0,0,0,.58,10.38c.55,3.13,1.44,6.2,2.15,9.3,2.21,9.74,2.54,19.87,5.24,29.49.91,3.24,2.1,6.49,1.92,9.85" transform="translate(-45.19 -57.8)"/><path class="cls-1" d="M398.08,321.75a66.56,66.56,0,0,0-6-13.92,11.79,11.79,0,0,0-3.39-4.42c-2.18-1.48-5-1.33-7.65-1.13a8.34,8.34,0,0,0-2.25.39,5.46,5.46,0,0,0-1.95,1.32c-2.54,2.56-3,6.47-3.19,10.07-.16,3-.22,6.08-.1,9.12a38.07,38.07,0,0,0,.47,5,25.78,25.78,0,0,0,13.27,18.18,6.43,6.43,0,0,0,4.58.92,4.92,4.92,0,0,0,3.11-3.36,13,13,0,0,0,.41-5.23,6.51,6.51,0,0,0-1.7-4.19c-1.13-1.1-2.61-2-3.1-3.62a11.5,11.5,0,0,1-.36-3.08l-.07-2.57c-.08-2.89-.16-5.78-.22-8.67a13.11,13.11,0,0,1,.43-4.48" transform="translate(-45.19 -57.8)"/><path class="cls-1" d="M373.94,309.55a6,6,0,0,0-2.88-2.47,6.86,6.86,0,0,0-3.67.23c-2.68.67-5.7,1.61-6.84,4.12a8.69,8.69,0,0,0-.56,3.62,67.07,67.07,0,0,0,3.22,20.66,17.85,17.85,0,0,0,2.37,5.14,20.56,20.56,0,0,0,2.86,3l4.33,3.95A8.5,8.5,0,0,0,376.1,350a4.31,4.31,0,0,0,4-1c1.61-1.54,1.75-4,1.79-6.23" transform="translate(-45.19 -57.8)"/><path class="cls-1" d="M366.46,341.94a19.52,19.52,0,0,1,2.45,7.94,9.58,9.58,0,0,1-.07,3.17,3.68,3.68,0,0,1-2.14,2.35c-1.15.36-2.66-.43-3.68-1.06a43.5,43.5,0,0,1-10.46-9.08,13.9,13.9,0,0,1-2-2.94,14.83,14.83,0,0,1-1-3.35q-.55-2.58-.94-5.18a14.47,14.47,0,0,1-.21-3.19,9.2,9.2,0,0,1,.7-2.83,12,12,0,0,1,2.31-3.55,7.14,7.14,0,0,1,1.87-1.5c2.2-1.15,4.89-.48,7.16.51" transform="translate(-45.19 -57.8)"/><path class="cls-1" d="M353.85,347.11c2.77,15.32,4,31,9.25,45.82,5.4,15.27,14,29,16.54,45.27" transform="translate(-45.19 -57.8)"/><path class="cls-1" d="M405.23,342.18a22.06,22.06,0,0,0-7.26,8.59,70.88,70.88,0,0,0-2.79,7.92c-.81,2.41-1.77,4.76-2.74,7.12L382.91,389" transform="translate(-45.19 -57.8)"/><path class="cls-1" d="M399.92,344.44c-2.31,1.11-3.68,3.49-5.44,5.36-2.11,2.25-4.83,3.81-7.27,5.69a66.89,66.89,0,0,0-9.85,10.1,6.83,6.83,0,0,0-1.63,2.68" transform="translate(-45.19 -57.8)"/><path class="cls-2" d="M368.71,352.5c-1.48-1.42-2.23-3.53-3.91-4.71a2.3,2.3,0,0,0-1.36-.49,2.57,2.57,0,0,0-1.62.86,4.6,4.6,0,0,0-1.43,2.45,2.51,2.51,0,0,0,1,2.53" transform="translate(-45.19 -57.8)"/><path class="cls-2" d="M381.07,346.71a18.12,18.12,0,0,0-3.31-3.62,5.71,5.71,0,0,0-1.56-1,2.43,2.43,0,0,0-1.82,0,3.53,3.53,0,0,0-.84.57,5,5,0,0,0-1.6,1.93,5.46,5.46,0,0,0-.13,2.52" transform="translate(-45.19 -57.8)"/><path class="cls-2" d="M394.46,344.43a9.78,9.78,0,0,1-2.67-2.52,4.89,4.89,0,0,0-3-1.92,4.09,4.09,0,0,0-1.31.14,7.86,7.86,0,0,0-1.9.74,3.3,3.3,0,0,0-.83.6,3.26,3.26,0,0,0-.58,2.85" transform="translate(-45.19 -57.8)"/><path class="cls-2" d="M453.26,317.48a6.32,6.32,0,0,0-5.33,2.29A18,18,0,0,0,445,325c-.46,1.1-.91,2.38-.39,3.45s3.24,1.85,4.3,2.2" transform="translate(-45.19 -57.8)"/><path class="cls-2" d="M390.13,279.38a11.22,11.22,0,0,0,2.77-.83,13.53,13.53,0,0,1,2.87-.13,8,8,0,0,0,3.25-.81" transform="translate(-45.19 -57.8)"/><path class="cls-2" d="M393.77,299.12a6.91,6.91,0,0,1,4.15-.86,9,9,0,0,0,4.23-.56" transform="translate(-45.19 -57.8)"/><path class="cls-2" d="M390.47,330.18a26.61,26.61,0,0,1,2.53-1.95,5.29,5.29,0,0,0,2-2.47" transform="translate(-45.19 -57.8)"/><path class="cls-2" d="M375.63,332.95a4.89,4.89,0,0,0,1.6-.62c.36-.22.69-.48,1.06-.67,1.64-.85,3.81-.21,5.37-1.21" transform="translate(-45.19 -57.8)"/><path class="cls-2" d="M370.21,334.55a19.22,19.22,0,0,1-4.93,2.31" transform="translate(-45.19 -57.8)"/><path class="cls-2" d="M367.62,337.24a13,13,0,0,1-1.35.49" transform="translate(-45.19 -57.8)"/><path class="cls-2" d="M357.38,340.62a6.18,6.18,0,0,1-3.7,2,3.76,3.76,0,0,0-2.32.71" transform="translate(-45.19 -57.8)"/><path class="cls-2" d="M435.15,334.77a21,21,0,0,1-6.7-5.69" transform="translate(-45.19 -57.8)"/><path class="cls-2" d="M433.14,329.87a20,20,0,0,1-1.79-1,4.16,4.16,0,0,1-.48-.34,9.26,9.26,0,0,1-1.42-1.46" transform="translate(-45.19 -57.8)"/><path class="cls-2" d="M417.81,356.31a14.61,14.61,0,0,0,1.33,9.63" transform="translate(-45.19 -57.8)"/><path class="cls-2" d="M420.27,356.33a22,22,0,0,0,.63,4.08" transform="translate(-45.19 -57.8)"/><path class="cls-2" d="M405.58,358.37a21.28,21.28,0,0,0-4.56,3.41,3,3,0,0,0-1,1.48" transform="translate(-45.19 -57.8)"/><path class="cls-2" d="M420.1,346.08c-2.23,1-4.82.7-7.25.35" transform="translate(-45.19 -57.8)"/><path class="cls-2" d="M415.64,342.56l-3.16-.28" transform="translate(-45.19 -57.8)"/><path class="cls-2" d="M388.41,418.93A96,96,0,0,1,390.68,434" transform="translate(-45.19 -57.8)"/><path class="cls-2" d="M392.2,423.85q.94,3.6,1.68,7.25" transform="translate(-45.19 -57.8)"/><path class="cls-2" d="M353.5,326.76a7.7,7.7,0,0,0-2.54,7" transform="translate(-45.19 -57.8)"/><path class="cls-2" d="M365.38,310.11a5.63,5.63,0,0,0-2.61,2.93,6.33,6.33,0,0,0-.07,2.28" transform="translate(-45.19 -57.8)"/><path class="cls-2" d="M365.37,313.34a2.62,2.62,0,0,0-.87,2" transform="translate(-45.19 -57.8)"/><path class="cls-1" d="M78.42,216.79c6.15-15.15,8.66-31.45,2.39-46.5-6.27-18.81-22.58-31.36-32.61-48.91-1.25-2.51-2.51-5-2.51-7.53,2.51-7.53,0-13.8,0-20.07,0-1.25,0-3.76,5-2.51,2.51,1.25,5,2.51,6.27,5,3.76,6.27,5,12.54,7.53,18.81,1.25,5,7.53,15.05,15.05,10,6.27-13.8,7.53-30.1,4.32-44.82" transform="translate(-45.19 -57.8)"/><path class="cls-1" d="M92.64,69.52c.28,1.58-.52,3.14-1.31,4.54a17.25,17.25,0,0,1-3.22,4.46,6.19,6.19,0,0,1-5,1.74c-2.28-.39-4-2.5-4.53-4.74a15.3,15.3,0,0,1,.29-6.87c.46-2.15,1.17-4.46,3-5.66A8.49,8.49,0,0,1,84.19,62c2.22-.63,4.67-1.14,6.78-.19a10.64,10.64,0,0,1,3,2.33c2,2,4.07,4.08,5.05,6.74a15.75,15.75,0,0,1,.77,3.42c.76,5.71.26,11.52,1,17.24.16,1.3.52,2.8,1.72,3.34s2.8-.31,3.76-1.36a14.66,14.66,0,0,0,3.37-7.39,35.63,35.63,0,0,0,.43-7.41" transform="translate(-45.19 -57.8)"/><path class="cls-1" d="M122,67a17.29,17.29,0,0,1-2.14,4c-2.63,3.14-4.85,7-8.89,7.64a6.56,6.56,0,0,1-6-1.85,6.68,6.68,0,0,1-1.14-1.93,6.44,6.44,0,0,1-.52-2.56c.06-2,1.28-3.67,2.38-5.31a40.86,40.86,0,0,1,4-5.56,9.4,9.4,0,0,1,5.93-3.16,8.68,8.68,0,0,1,5.81,2A19.62,19.62,0,0,1,125.6,65c.94,1.41,2.06,2.52,2.22,4.2" transform="translate(-45.19 -57.8)"/><path class="cls-1" d="M153.48,98.56c-4.94,2.75-15,7.77-16.23.25-1.25-6.27,6.27-12.54,12.54-11.29s7.53,8.78,6.27,15.05c-6.27,18.81-11.29,37.63-17.56,56.44-3.76,12.54-7.53,25.08-10,37.63-1.25,6.27,0,13.8.55,19.94" transform="translate(-45.19 -57.8)"/><path class="cls-1" d="M135.61,78.48a24.52,24.52,0,0,1-6.49,7,14,14,0,0,1-5,2.25,7.35,7.35,0,0,1-5.34-.85,5,5,0,0,1-2.36-4.7A8.52,8.52,0,0,1,118.75,78l3.86-4.52a17.82,17.82,0,0,1,3.05-3,6,6,0,0,1,4-1.24c1.77.19,3.24,1.4,4.55,2.61a67.43,67.43,0,0,1,5.27,5.46,12,12,0,0,1,2.74,4.46,10.71,10.71,0,0,1,0,4.79,22.6,22.6,0,0,1-.91,3.4" transform="translate(-45.19 -57.8)"/><path class="cls-1" d="M140.92,102.69a22.1,22.1,0,0,1-1.17,3.72,9.8,9.8,0,0,1-3.07,4.46.86.86,0,0,1-.63.21.7.7,0,0,1-.34-.19,2.43,2.43,0,0,1-.6-1.64,14.92,14.92,0,0,1,.92-5.43,13.87,13.87,0,0,1,1.88-3.07" transform="translate(-45.19 -57.8)"/><path class="cls-1" d="M115.54,76.26a6.6,6.6,0,0,0,1.55.2,2.64,2.64,0,0,0,1.48-.44" transform="translate(-45.19 -57.8)"/><path class="cls-1" d="M128.83,86a15.56,15.56,0,0,0,8.6-.1" transform="translate(-45.19 -57.8)"/><path class="cls-1" d="M144.12,102.5c2.32,1.89,5,2.19,8,2.11l-.24,0" transform="translate(-45.19 -57.8)"/><path class="cls-2" d="M141,90.06a8.75,8.75,0,0,1,4.83,3.39,2.25,2.25,0,0,1,.32,1,2.3,2.3,0,0,1-.31,1.1,9.05,9.05,0,0,1-1.7,2.27,4.72,4.72,0,0,1-2.28,1.42.9.9,0,0,1-.38,0,1,1,0,0,1-.35-.18,13.65,13.65,0,0,1-3.73-3.92" transform="translate(-45.19 -57.8)"/><path class="cls-2" d="M117.06,80.51a10,10,0,0,1,5.71,2.77,1.7,1.7,0,0,0,1.16.63,1.56,1.56,0,0,0,.77-.37,9,9,0,0,0,3-3.09,2.46,2.46,0,0,0,.18-2,3.19,3.19,0,0,0-.81-1,11.39,11.39,0,0,0-2.52-1.9,4.83,4.83,0,0,0-3.06-.55" transform="translate(-45.19 -57.8)"/><path class="cls-2" d="M103.64,72.49a5.15,5.15,0,0,1,3.51.33,12.65,12.65,0,0,1,3,2c.39.32.86.67,1.34.53A1.45,1.45,0,0,0,112,75a18.87,18.87,0,0,0,2.12-2.43,3.32,3.32,0,0,0,.78-1.77,3.2,3.2,0,0,0-1-2.15,9.51,9.51,0,0,0-3.45-2.48,5.63,5.63,0,0,0-3.91-.34" transform="translate(-45.19 -57.8)"/><path class="cls-2" d="M79.63,77.61a2.19,2.19,0,0,1,1.26-1,5.77,5.77,0,0,1,1.61-.23q1.59-.06,3.19,0a1.76,1.76,0,0,0,.62,0,1.3,1.3,0,0,0,.62-.5,5.36,5.36,0,0,0,.74-3.08l.05-1.58a3,3,0,0,0-.39-2,2.82,2.82,0,0,0-1.59-.84Q84.88,68.2,84,68a7.35,7.35,0,0,0-1.52-.16,4.43,4.43,0,0,0-4,3.06" transform="translate(-45.19 -57.8)"/><path class="cls-1" d="M62.33,111.12a7.56,7.56,0,0,1-1.18,4.78,13.25,13.25,0,0,1-3.45,3.59" transform="translate(-45.19 -57.8)"/><path class="cls-2" d="M46.8,107.15a5,5,0,0,0,1.21-.31,1.22,1.22,0,0,0,.41-.16,1.17,1.17,0,0,0,.33-.42,7.48,7.48,0,0,0,.68-3.86,10.87,10.87,0,0,0-1-4.44,5.07,5.07,0,0,0-2.71-2.89" transform="translate(-45.19 -57.8)"/><path class="cls-1" d="M87.94,78.67a13.06,13.06,0,0,0,6.69-2.14,6.13,6.13,0,0,0,1.83-1.65" transform="translate(-45.19 -57.8)"/><path class="cls-1" d="M124.59,87.59c.12,3-2.86,10.26-3.72,13.17" transform="translate(-45.19 -57.8)"/><path class="cls-2" d="M92.26,90.83a9.66,9.66,0,0,0,5.6-1.19" transform="translate(-45.19 -57.8)"/><path class="cls-2" d="M95.89,88.92a8.56,8.56,0,0,0,2-.61" transform="translate(-45.19 -57.8)"/><path class="cls-2" d="M96.52,86.86,98,86.41" transform="translate(-45.19 -57.8)"/><path class="cls-2" d="M126.76,98.52a5.56,5.56,0,0,1,2.34,1.17,14.61,14.61,0,0,1,1.85,1.88" transform="translate(-45.19 -57.8)"/><path class="cls-2" d="M125.8,99.82a10.24,10.24,0,0,1,2,1.89" transform="translate(-45.19 -57.8)"/><path class="cls-2" d="M112.45,92.39a25.57,25.57,0,0,1,7.05,1.94" transform="translate(-45.19 -57.8)"/><path class="cls-2" d="M66.11,128.19a9.1,9.1,0,0,0,3.16-2.85" transform="translate(-45.19 -57.8)"/><path class="cls-2" d="M67.47,125.06a2.58,2.58,0,0,0,.93-.68" transform="translate(-45.19 -57.8)"/><path class="cls-2" d="M56,100.58a6.76,6.76,0,0,1,2.47,3.22,16,16,0,0,1,1.25,7.48" transform="translate(-45.19 -57.8)"/><path class="cls-2" d="M57.39,106.25a11.47,11.47,0,0,1,.67,5.43" transform="translate(-45.19 -57.8)"/><path class="cls-2" d="M96.81,205.5a205.38,205.38,0,0,0,5.56-22.31" transform="translate(-45.19 -57.8)"/><path class="cls-2" d="M111.7,201.76a73.59,73.59,0,0,0-.42-18.9" transform="translate(-45.19 -57.8)"/><path class="cls-2" d="M70.22,147.1a9,9,0,0,1,2.27-6.67" transform="translate(-45.19 -57.8)"/><path class="cls-2" d="M69,145a4.07,4.07,0,0,1,.65-2.32" transform="translate(-45.19 -57.8)"/><path class="cls-2" d="M143.57,113a3.07,3.07,0,0,0,1.13,1.16,6.1,6.1,0,0,0,5.49.54" transform="translate(-45.19 -57.8)"/><path class="cls-2" d="M147.24,112.19a5.49,5.49,0,0,0,3.14.23" transform="translate(-45.19 -57.8)"/><path class="cls-2" d="M149.49,110.08h1.36" transform="translate(-45.19 -57.8)"/><path class="cls-1" d="M91.23,96.4c7-2.3,14.56,0,21.36,2.74,9.45,3.81,18.86,8.78,25,16.91" transform="translate(-45.19 -57.8)"/><path class="cls-1" d="M100.67,110.78c12.85,5.07,22.72,15.54,31.74,26" transform="translate(-45.19 -57.8)"/><path class="cls-1" d="M93,115.32c9.38,9,13.22,22.61,12.85,35.6" transform="translate(-45.19 -57.8)"/><path class="cls-1" d="M133.88,302.45a7,7,0,0,1,5.31,1.82c1,3.66,0,6.88-.42,10.58a107,107,0,0,0-.52,12,30.92,30.92,0,0,1-2.07,11.37c-1.33,3.75-2.48,7.5-3.57,11.41-2.31,8.27-5.21,16-6.38,24.61-.6,4.4-.35,8.88-1.19,13.21A66.32,66.32,0,0,1,121.5,400c-1.62,3.82-3.05,7.72-4.45,11.68-2.64,7.44-2.82,15.46-2.82,23.42v4" transform="translate(-45.19 -57.8)"/><path class="cls-1" d="M101.48,291.53a41.73,41.73,0,0,1,11.87-2.18c4.17-.19,7.87,2.86,10.78,5.32a29.8,29.8,0,0,0,5,3.61c1.69.9,3.95,1.79,4.56,3.76,1.27,4.1-5.9,7.07-8.92,7.33-5.44.48-10.85-3.63-14.9-6.56" transform="translate(-45.19 -57.8)"/><path class="cls-1" d="M111.85,304.21c-.1.44-.92.67-1.28.89a16.17,16.17,0,0,1-1.52.72c-.9.43-1.83.85-2.77,1.19a15.79,15.79,0,0,1-5.39.81" transform="translate(-45.19 -57.8)"/><path class="cls-1" d="M125.85,309.49a15.72,15.72,0,0,0-5,7.14,45,45,0,0,0-2,8.59c-1,6.4-2,12.86-4.1,19-1,2.9-2.14,5.81-4.95,7.06" transform="translate(-45.19 -57.8)"/><path class="cls-1" d="M124.42,362.85c-2.32-4.13-6.59-6.72-10.66-9.15-3.6-2.15-7.2-4-10.31-6.77a16.67,16.67,0,0,1-5.76-11.37c-.2-1.79-.06-3.6-.17-5.4a19.32,19.32,0,0,0-1.46-6.3,1.69,1.69,0,0,1,.38-2.25,19.4,19.4,0,0,0,4.45-13.8" transform="translate(-45.19 -57.8)"/><path class="cls-1" d="M81.09,349.77c0-5.07-1.23-11.34,1.28-16.36,5-11.29,15.05-18.81,21.32-30.1,2.51-3.76-2.51-8.78-5-7.53-15.05,5-23.83,18.81-32.61,32.61-1.25,3.76,0,8.78,0,12.54-1.25,7.53-5,15.05-3.76,22.58,3.76,13.8,5,27.59,5,41.39,1.25,11.29,6.27,22.58,5.95,33.37" transform="translate(-45.19 -57.8)"/><path class="cls-1" d="M68.09,324.05l.9-6.87a27.89,27.89,0,0,1,1.1-5.51c1-3,3.1-5.61,5.12-8.12l8.72-10.83c1.74-2.16,3.48-4.33,5-6.64s2.69-4.45,4.08-6.64a58,58,0,0,1,11.27-12.94,4.7,4.7,0,0,1,1.28-.86c1.57-.62,3.31.52,4.28,1.9,2,2.79,2.11,6.57,1.06,9.82A26.25,26.25,0,0,1,105.6,286a97.64,97.64,0,0,0-6.93,9.75" transform="translate(-45.19 -57.8)"/><path class="cls-1" d="M75.2,303.56a12.14,12.14,0,0,1,.69-5.24,25.12,25.12,0,0,1,3.76-6.24c1.43-1.9,2.73-3.94,4.24-5.76,3-3.6,5.45-7.75,8.43-11.35,4.69-5.66,9.4-11.32,14.55-16.57a4.38,4.38,0,0,1,1.06-.87c1.55-.81,3.41.43,4.43,1.85a11,11,0,0,1-.74,13.32" transform="translate(-45.19 -57.8)"/><path class="cls-1" d="M95.56,322.64a9.08,9.08,0,0,1-5.11,1.43" transform="translate(-45.19 -57.8)"/><path class="cls-1" d="M98.77,340.3c-2.85,5.59-3.1,11.52-3,17.79a68.27,68.27,0,0,0,1.16,12.7,87.09,87.09,0,0,0,3,10.33c.55,1.64,1.11,3.28,1.82,4.85" transform="translate(-45.19 -57.8)"/><path class="cls-1" d="M88.42,354.23a16.33,16.33,0,0,1-1.1,13.5" transform="translate(-45.19 -57.8)"/><path class="cls-2" d="M98.67,295.79a11,11,0,0,1,.7,3.37l-3.23,2.11a11,11,0,0,1-4.89,2.15c-.92.08-2.88-1.16-3.54-1.81" transform="translate(-45.19 -57.8)"/><path class="cls-2" d="M132.39,300.79l-.44,1.84a1.5,1.5,0,0,1-.37.79,1.38,1.38,0,0,1-1.12.21,7.54,7.54,0,0,1-6.53-7.33c0-.54,0-1.07,0-1.61" transform="translate(-45.19 -57.8)"/><path class="cls-2" d="M103.57,267.06l.06,3.27a8.56,8.56,0,0,1-.12,2c-.37,1.71-1.73,3-3,4.2a9.63,9.63,0,0,1-1.7,1.34,7.8,7.8,0,0,1-4,.79,2.41,2.41,0,0,1-1.17-.23" transform="translate(-45.19 -57.8)"/><path class="cls-2" d="M106.66,258.54a13,13,0,0,1,.83,2.92,4.38,4.38,0,0,1-.57,2.93,6.55,6.55,0,0,1-2.58,2l-2.48,1.31a7.86,7.86,0,0,1-1.58.69,4,4,0,0,1-2.39-.11" transform="translate(-45.19 -57.8)"/><path class="cls-2" d="M127.74,334.81a20.4,20.4,0,0,1-9.11-5.78" transform="translate(-45.19 -57.8)"/><path class="cls-2" d="M120,332.24a4.82,4.82,0,0,1-2.23-1.58" transform="translate(-45.19 -57.8)"/><path class="cls-2" d="M131.12,335.65a9,9,0,0,1-1.44-.34" transform="translate(-45.19 -57.8)"/><path class="cls-2" d="M121.05,349.83c-2.33-1-4.76-2.05-6.37-4" transform="translate(-45.19 -57.8)"/><path class="cls-2" d="M123.64,350.76a3.89,3.89,0,0,1-.92-.22" transform="translate(-45.19 -57.8)"/><path class="cls-2" d="M117.56,350a7.46,7.46,0,0,1-2.63-1.61" transform="translate(-45.19 -57.8)"/><path class="cls-2" d="M115.27,350.66a3.69,3.69,0,0,1-1.35-.62" transform="translate(-45.19 -57.8)"/><path class="cls-2" d="M79.88,353.8a7.14,7.14,0,0,1-2.74,2.77,4,4,0,0,1-2.3.95" transform="translate(-45.19 -57.8)"/><path class="cls-2" d="M82.61,351.49a1.62,1.62,0,0,1,1,.48,3.47,3.47,0,0,1,.66,1" transform="translate(-45.19 -57.8)"/><path class="cls-2" d="M81.42,353.75a2.69,2.69,0,0,1-.05,1.46,8,8,0,0,1-.58,1.36" transform="translate(-45.19 -57.8)"/><path class="cls-2" d="M100.85,394.32a17,17,0,0,1-6.1-11.79" transform="translate(-45.19 -57.8)"/><path class="cls-2" d="M109.21,415.22l-1.36-4.67" transform="translate(-45.19 -57.8)"/><path class="cls-2" d="M81.09,312.68a2.7,2.7,0,0,0,.38,1,4.58,4.58,0,0,0,.52.81,2.4,2.4,0,0,0,1.46.8" transform="translate(-45.19 -57.8)"/><path class="cls-2" d="M82.39,311.21a7.82,7.82,0,0,0,1.12,1.19" transform="translate(-45.19 -57.8)"/><path class="cls-2" d="M75.82,310a.54.54,0,0,0-.31-.26A8.31,8.31,0,0,0,73,309" transform="translate(-45.19 -57.8)"/><path class="cls-2" d="M73.77,311.19a2.78,2.78,0,0,0-1.48-.67" transform="translate(-45.19 -57.8)"/><path class="cls-2" d="M93.09,287.24A5.79,5.79,0,0,1,91,285.51" transform="translate(-45.19 -57.8)"/><path class="cls-2" d="M91.14,287.84l-1-1" transform="translate(-45.19 -57.8)"/><path class="cls-2" d="M115.77,291.54a9,9,0,0,0-1.18,4.86" transform="translate(-45.19 -57.8)"/><path class="cls-2" d="M114,292.08a7.65,7.65,0,0,0-.44,1.76" transform="translate(-45.19 -57.8)"/><path class="cls-2" d="M114,297.84a6.28,6.28,0,0,0,0,1.23" transform="translate(-45.19 -57.8)"/><path class="cls-1" d="M281.35,351.79a30.85,30.85,0,0,1-3.51-11.09c-.61-5.22.12-10.58-1.06-15.69-.53-2.31-1.44-4.52-1.92-6.83-1-5-.12-10.36-2.2-15a12.45,12.45,0,0,0-16-6.46,6.85,6.85,0,0,0-2.72,1.82c-1.11,1.31-2,3.24-1.4,4.85,1.51,4,1.2,6.73,2.36,10a5,5,0,0,0,.83,1.65c1,1.16,2.8,1.15,4.28.74a11.31,11.31,0,0,0,7.8-12.54" transform="translate(-45.19 -57.8)"/><path class="cls-1" d="M258.12,315.91a58.8,58.8,0,0,1,.63,6.08" transform="translate(-45.19 -57.8)"/><path class="cls-1" d="M256.12,297c-2.52-8.38-4.69-16.62-6.52-25.18-.37-1.72-.71-3.46-1.18-5.16a35.84,35.84,0,0,0-2.39-6.3,5.63,5.63,0,0,0-1.75-2.32,4,4,0,0,0-.89-.43,5.76,5.76,0,0,0-5.88,1.37c-1.56,1.59-2.34,5.27-2.36,7.49" transform="translate(-45.19 -57.8)"/><path class="cls-1" d="M249.45,322.54a14,14,0,0,0-9,2.59" transform="translate(-45.19 -57.8)"/><path class="cls-1" d="M230.46,331.82" transform="translate(-45.19 -57.8)"/><path class="cls-1" d="M243.41,322.95c-.11-6.63-.22-13.29-1.39-19.81-.84-4.67-2.22-9.23-2.84-13.94-.53-4-.49-8.06-.84-12.09a25.85,25.85,0,0,0-.62-4.54,15.47,15.47,0,0,0-.79-2.32c-.54-1.49-1.11-4.13-3.07-4.56a8.92,8.92,0,0,0-4,.35,5.48,5.48,0,0,0-3.29,2.51,8.15,8.15,0,0,0-.69,3.2l-.61,7.84a41,41,0,0,0-.17,6.3c.11,1.44.37,2.86.58,4.28,1.14,8,.53,16.18,2.53,24,.49,1.92,1.14,3.8,1.57,5.74a39.69,39.69,0,0,1,.74,5.47q.24,3.12.26,6.25" transform="translate(-45.19 -57.8)"/><path class="cls-1" d="M232.15,331.25a6,6,0,0,0-1.64.58,18,18,0,0,0-4.73,4" transform="translate(-45.19 -57.8)"/><path class="cls-1" d="M226.42,335.11c-2.75-7.78-5.53-15.54-8.27-23.32q-2-5.76-4-11.53c-1.3-3.77-2.42-13.16-7.76-13.34-6.57-.23-4,12.07-3.52,15.49a137.21,137.21,0,0,0,5.92,24.47c2.23,6.84,4.74,13.57,7.16,20.34,2.51,8.78,0,16.3,0,25.08,1.25,17.56,6.27,32.61,12.54,48.91a91.85,91.85,0,0,1,3,16.93" transform="translate(-45.19 -57.8)"/><path class="cls-1" d="M275.3,438c-1.41-6.79-1.7-13.73-2.22-20.63-.38-5.07-2.08-10.59,0-15.42,5.55-12.71,17.52-22.28,22.24-35.43,4.37-12.17,8.56-23,17.64-32.59,3.21-3.4,12-9.22,3-11.45-6.18-1.54-12.52,2.35-17.32,5.8-6,4.33-8.75,10.31-12.26,16.6-3,5.41-7.92,11.46-14.79,11.09" transform="translate(-45.19 -57.8)"/><path class="cls-1" d="M261.95,304.64a6.31,6.31,0,0,0-2.2-.28,6.14,6.14,0,0,0-2.92.46,1.89,1.89,0,0,0-.82.75,2.72,2.72,0,0,0-.23,1.13c-.16,2.51-.31,5-.25,7.55a.38.38,0,0,0,.44.46,20,20,0,0,0,7.19-.76.69.69,0,0,0,.31-.16.71.71,0,0,0,.15-.36C264.15,310.89,265.26,305.89,261.95,304.64Z" transform="translate(-45.19 -57.8)"/><path class="cls-1" d="M265.56,323.08a55.06,55.06,0,0,0-6.31-1,10.67,10.67,0,0,0-5.31.43" transform="translate(-45.19 -57.8)"/><path class="cls-1" d="M250.68,278.27a5.33,5.33,0,0,1-3.07,1.55,15.86,15.86,0,0,1-3.5.09" transform="translate(-45.19 -57.8)"/><path class="cls-1" d="M238.92,288a12.35,12.35,0,0,1-6.34.81" transform="translate(-45.19 -57.8)"/><path class="cls-1" d="M215.86,307.4a11.58,11.58,0,0,1-5.91,3.27" transform="translate(-45.19 -57.8)"/><path class="cls-1" d="M220.55,320l-4.81,2.24" transform="translate(-45.19 -57.8)"/><path class="cls-1" d="M242.08,306a7.05,7.05,0,0,1-4.58,1.19" transform="translate(-45.19 -57.8)"/><path class="cls-1" d="M217.47,341.17a8.3,8.3,0,0,1-3.24,1.09" transform="translate(-45.19 -57.8)"/><path class="cls-1" d="M267.25,341.6c-7,4-11.9,10.92-15.15,18.28-3.55,8-5.71,17.25-12.38,23" transform="translate(-45.19 -57.8)"/><path class="cls-1" d="M254.48,348.72a54.22,54.22,0,0,0-21.86,23.62" transform="translate(-45.19 -57.8)"/><path class="cls-1" d="M249.65,341.82a30.93,30.93,0,0,1-11.32,7.69,67.42,67.42,0,0,1-13.27,3.68" transform="translate(-45.19 -57.8)"/><path class="cls-1" d="M279.86,353.16a11.27,11.27,0,0,1-6.55-2.71" transform="translate(-45.19 -57.8)"/><path class="cls-2" d="M308.55,325.63a18,18,0,0,0-8.87,5" transform="translate(-45.19 -57.8)"/><path class="cls-2" d="M303,330.54a6.33,6.33,0,0,0-2.43,1.49" transform="translate(-45.19 -57.8)"/><path class="cls-2" d="M270.71,305.42A22,22,0,0,1,267,309" transform="translate(-45.19 -57.8)"/><path class="cls-2" d="M231.77,269.62a5.36,5.36,0,0,0-4,4.94" transform="translate(-45.19 -57.8)"/><path class="cls-2" d="M230.08,273a3.53,3.53,0,0,0-1.07,2.29" transform="translate(-45.19 -57.8)"/><path class="cls-2" d="M233.65,311.73a9.34,9.34,0,0,1-3.94.46" transform="translate(-45.19 -57.8)"/><path class="cls-2" d="M232.74,314.08a4.89,4.89,0,0,1-2.61.32" transform="translate(-45.19 -57.8)"/><path class="cls-2" d="M232.27,316.19l-1,.2" transform="translate(-45.19 -57.8)"/><path class="cls-2" d="M273.5,365.68a25.45,25.45,0,0,1-11.71-5.33" transform="translate(-45.19 -57.8)"/><path class="cls-2" d="M268.61,367.83a15.07,15.07,0,0,1-9.07-3.8" transform="translate(-45.19 -57.8)"/><path class="cls-2" d="M263.93,370l-6-2.65" transform="translate(-45.19 -57.8)"/><path class="cls-2" d="M258.19,371a7,7,0,0,1-2.93-1.36" transform="translate(-45.19 -57.8)"/><path class="cls-2" d="M255.08,373.2l-1.92-1.12" transform="translate(-45.19 -57.8)"/><path class="cls-2" d="M252.71,301.09a13.3,13.3,0,0,1-6.14,1.32" transform="translate(-45.19 -57.8)"/><path class="cls-1" d="M227,216.22c1.48-9.55,5.24-19.59,4-29.62-1.25-11.29-7.53-21.32-10-31.36a121.24,121.24,0,0,1-5-36.37c0-4.71-3.32-9.42-3.72-15.18a1.05,1.05,0,0,1,1.14-1.09c15.06,1,14,21.56,18.88,32.57,2.51,3.76,1.25,8.78,7.1,10" transform="translate(-45.19 -57.8)"/><path class="cls-1" d="M231.8,134.21a86.2,86.2,0,0,1,1.21-8.83q4.49-28.11,7.74-56.4a17.23,17.23,0,0,1,1.34-5.76,5.79,5.79,0,0,1,4.53-3.41,5.64,5.64,0,0,1,5,3A13.71,13.71,0,0,1,253,68.74a103.62,103.62,0,0,1-.55,16.58l-.76,8.81-2,23.57" transform="translate(-45.19 -57.8)"/><path class="cls-1" d="M247.16,118.58a21.15,21.15,0,0,1,8.44-.85" transform="translate(-45.19 -57.8)"/><path class="cls-1" d="M250.73,117.63l5-22c.36-1.58.73-3.16,1.22-4.7.76-2.36,1.84-4.61,2.72-6.93,2.61-6.91,3.48-14.47,6.88-21,1-2,2.47-4,4.63-4.57a4.83,4.83,0,0,1,5.57,2.86,9,9,0,0,1,.27,4,105.22,105.22,0,0,1-1.84,12.42c-2.88,13.71-8.49,26.82-10.25,40.71" transform="translate(-45.19 -57.8)"/><path class="cls-1" d="M262.58,118.25a12.48,12.48,0,0,1,6.64,3.15" transform="translate(-45.19 -57.8)"/><path class="cls-1" d="M267.08,119.67a87.32,87.32,0,0,1,6.1-19.23c.92-2,1.95-3.86,2.73-5.87s1.39-4.36,2-6.57a113,113,0,0,1,4.14-12A14.47,14.47,0,0,1,284,72.39a5.32,5.32,0,0,1,3.35-2.09c2.52-.34,4.82,1.88,5.48,4.34a12.61,12.61,0,0,1-.5,7.53C286.66,97.35,283.38,113,277,127.76" transform="translate(-45.19 -57.8)"/><path class="cls-1" d="M275.48,127.18a13,13,0,0,1,5.75,5.49" transform="translate(-45.19 -57.8)"/><path class="cls-1" d="M280.32,131c3.3-7.11,8.32-12.13,13.33-19.66,2.14-3.2,3.79-6.7,5.62-10.08,1.27-2.34,3.88-8.42,7.46-7.3a4.8,4.8,0,0,1,2.8,3.19c.62,2-.33,4.05-.92,5.93a66.66,66.66,0,0,1-2.83,7.67c-1.14,2.53-2.65,4.85-3.94,7.3-2.66,5.06-5.16,10.2-7.44,15.44a169.5,169.5,0,0,0-10.64,32.91q-.8,3.81-1.4,7.65c-1.25,6.27-5,10-7.53,15.05a62,62,0,0,0-8.21,27.21" transform="translate(-45.19 -57.8)"/><path class="cls-2" d="M212.28,104.77a9.2,9.2,0,0,1,3.29,4.73c.53,1.66.92,3.92-.52,5.24" transform="translate(-45.19 -57.8)"/><path class="cls-2" d="M285.08,150.79a8.37,8.37,0,0,0,2.64.84" transform="translate(-45.19 -57.8)"/><path class="cls-2" d="M241.86,141.56a4.94,4.94,0,0,1,3.14,1.86" transform="translate(-45.19 -57.8)"/><path class="cls-2" d="M247.54,135.88a3.53,3.53,0,0,1,1.4.64,25.84,25.84,0,0,1,3,2.34" transform="translate(-45.19 -57.8)"/><path class="cls-2" d="M247.19,97.23a7.14,7.14,0,0,0,4-.68" transform="translate(-45.19 -57.8)"/><path class="cls-2" d="M249.8,95.16q.84,0,1.68.07" transform="translate(-45.19 -57.8)"/><path class="cls-2" d="M247.57,80.57a11.12,11.12,0,0,0,5.16-.18" transform="translate(-45.19 -57.8)"/><path class="cls-2" d="M265.26,96.14a33.2,33.2,0,0,0,4.85.71" transform="translate(-45.19 -57.8)"/><path class="cls-2" d="M271.66,79.54a6.79,6.79,0,0,0,2.72.32" transform="translate(-45.19 -57.8)"/><path class="cls-2" d="M284.45,92.85a5.49,5.49,0,0,0,3.33.63" transform="translate(-45.19 -57.8)"/><path class="cls-2" d="M279.28,105.1a10.84,10.84,0,0,0,4.38,2" transform="translate(-45.19 -57.8)"/><path class="cls-2" d="M301,113.55a3.88,3.88,0,0,0,1,.46l1.72.63" transform="translate(-45.19 -57.8)"/><path class="cls-2" d="M294.62,123.92a16.44,16.44,0,0,0,1.38,1.36,5.87,5.87,0,0,0,1.73,1.05" transform="translate(-45.19 -57.8)"/><path class="cls-2" d="M287.49,133.68a6.91,6.91,0,0,0,.65.87,11,11,0,0,0,4.74,2.28" transform="translate(-45.19 -57.8)"/><path class="cls-2" d="M250.53,144.23c1.47,4.51,1.57,9.49,3.78,13.68.72,1.37,1.65,2.61,2.47,3.92a29.5,29.5,0,0,1,4.37,12.88" transform="translate(-45.19 -57.8)"/><path class="cls-2" d="M258.12,136.6c3.9,1.72,7.86,3.62,10.77,6.74,1.5,1.61,2.68,3.5,4.24,5a27.82,27.82,0,0,0,6.68,4.42" transform="translate(-45.19 -57.8)"/><path class="cls-1" d="M379.74,140.21c-3.62-7.65-9.26-14.69-13-22.27-2.62-5.27-4.79-7.8-7-12.09-1.34-2.65-.25-9.3.36-12.21a63.27,63.27,0,0,0,1.29-10.26,27.93,27.93,0,0,1,.43-4.88,28.13,28.13,0,0,1,2.34-5.87c.46-1,.93-1.93,1.35-2.92s.8-2,1.21-3c.17-.42.34-.84.53-1.25.35-.79,1-1.8,1.91-2a3.26,3.26,0,0,1,2.67,1.32c1.55,1.76,2.07,4.3,2.26,6.56a33.87,33.87,0,0,1-1.14,12,6.68,6.68,0,0,0-.38,2.11,6.93,6.93,0,0,0,.75,2.36,24.87,24.87,0,0,1,1.94,12.39,4.25,4.25,0,0,0,0,1.56,4.15,4.15,0,0,0,.73,1.29,34.7,34.7,0,0,1,5.38,11.15" transform="translate(-45.19 -57.8)"/><path class="cls-1" d="M373.91,69.85c.47-4.91-.78-12.43-7.05-11.18-7,14-9.67,29.12-11,44.3a8.86,8.86,0,0,0,1.68,6c22.49,31,33,69.93,28.3,107.63" transform="translate(-45.19 -57.8)"/><path class="cls-1" d="M370.82,59.16a14,14,0,0,1,5.42,5.9c2.26,5.22.77,11.21,1.07,16.88.18,3.54,1.08,7,1.07,10.58a34.13,34.13,0,0,0,0,4.89,10.68,10.68,0,0,0,.94,3c.83,1.75,2.05,3.28,2.93,5,1.5,2.92,2,6.34,3.84,9a20.65,20.65,0,0,0,4.69,4.42" transform="translate(-45.19 -57.8)"/><path class="cls-1" d="M383.4,108.13c.4-7.11,0-15.3.36-22.41a30,30,0,0,0,0-4.77,19.29,19.29,0,0,1-.32-4.08,1.84,1.84,0,0,1,.33-1c.53-.65,1.56-.48,2.32-.14a10,10,0,0,1,4.8,5,17.89,17.89,0,0,1,1.48,6.87,36.84,36.84,0,0,0,.33,5.55c.33,1.69,1,3.29,1.28,5,.21,1.46.07,2.95.18,4.42.32,4.11,2.61,7.86,3,12a19,19,0,0,0,.51,4.67,10.37,10.37,0,0,0,1.15,2.16c3,4.58,6.45,9.4,6.17,14.85" transform="translate(-45.19 -57.8)"/><path class="cls-1" d="M403.21,142.68c2.53,0,6.29,1.27,8.8-1.24,7.53-10,10-21.32,13.8-32.61,2.39-6,9.35-13.11,16.52-9.39a1.68,1.68,0,0,1,.88,1.72c-2.6,18.35-8.75,34.36-14.9,51.57-1.25,6.27,1.25,13.8,0,20.07-2.51,8.78-6.27,16.3-7.53,25.08,0,6.27,0,12.54.36,18.2" transform="translate(-45.19 -57.8)"/><path class="cls-1" d="M396.7,131.29c.92,2.36,3.36,3.74,5.73,4.65,4.25,1.63,8.77,2.53,12.87.54" transform="translate(-45.19 -57.8)"/><path class="cls-2" d="M440.35,112.91a11.77,11.77,0,0,1-3.58-1.23,4,4,0,0,1-1.11-.81,3.94,3.94,0,0,1-.83-2.35,5.78,5.78,0,0,1,.42-3,6.2,6.2,0,0,1,1.74-2,8.91,8.91,0,0,1,3.17-1.76,3.65,3.65,0,0,1,3,.05" transform="translate(-45.19 -57.8)"/><path class="cls-2" d="M364.63,72.58a3,3,0,0,0,2.38-.19,2.63,2.63,0,0,0,.78-1.2c.79-2,1.76-5.1.43-7.18" transform="translate(-45.19 -57.8)"/><path class="cls-2" d="M362.57,68.79a3.11,3.11,0,0,0,2.46-.06,3.14,3.14,0,0,0,1.09-1.28,13.82,13.82,0,0,0,1.69-6.09,5.21,5.21,0,0,0-1.19-2.2" transform="translate(-45.19 -57.8)"/><path class="cls-2" d="M366.56,86a13.64,13.64,0,0,0,5.93-.44" transform="translate(-45.19 -57.8)"/><path class="cls-2" d="M370.2,84.33a7.78,7.78,0,0,0,2.48-.13" transform="translate(-45.19 -57.8)"/><path class="cls-2" d="M435.72,131.67a8.3,8.3,0,0,1-5.38-2.15" transform="translate(-45.19 -57.8)"/><path class="cls-2" d="M430.74,121.34c2.72.12,5.31.27,7.71,1.55" transform="translate(-45.19 -57.8)"/><path class="cls-2" d="M435.43,125.11a14.22,14.22,0,0,0,2.15.67" transform="translate(-45.19 -57.8)"/><path class="cls-2" d="M390.07,104.89a6.77,6.77,0,0,0,4,.13" transform="translate(-45.19 -57.8)"/><path class="cls-2" d="M392.47,103.36h1.32a1,1,0,0,0,.63-.14" transform="translate(-45.19 -57.8)"/><path class="cls-2" d="M388.87,93.81a10.06,10.06,0,0,0,1.8,0,4,4,0,0,0,1.71-.52" transform="translate(-45.19 -57.8)"/><path class="cls-2" d="M390.9,92.15a3,3,0,0,0,1.34,0" transform="translate(-45.19 -57.8)"/><path class="cls-2" d="M368.56,103.31a10.72,10.72,0,0,0,6.32-1.74" transform="translate(-45.19 -57.8)"/><path class="cls-2" d="M372.88,100.53a4,4,0,0,0,2-.49" transform="translate(-45.19 -57.8)"/><path class="cls-2" d="M376.67,99.14a6.81,6.81,0,0,0,1.37-.59" transform="translate(-45.19 -57.8)"/><path class="cls-2" d="M374.95,83.34A7.94,7.94,0,0,0,377,82.6" transform="translate(-45.19 -57.8)"/><path class="cls-2" d="M393.82,118.42a8.2,8.2,0,0,0,3,.29" transform="translate(-45.19 -57.8)"/><path class="cls-2" d="M421,165.89a19.8,19.8,0,0,1-.15,8.59" transform="translate(-45.19 -57.8)"/><path class="cls-2" d="M418.76,171.38a17.43,17.43,0,0,1-.15,3" transform="translate(-45.19 -57.8)"/></g></svg>