<svg xmlns="http://www.w3.org/2000/svg" viewBox="0 0 500 500"><defs><style>.cls-1{fill:#fff;}.cls-2{fill:#222221;}.cls-3{fill:none;stroke:#222221;stroke-miterlimit:10;stroke-width:0.8px;}</style></defs><title>papel</title><g id="BACKGROUND"><rect class="cls-1" width="500" height="500"/></g><g id="OBJECTS"><path class="cls-1" d="M166.25,131.29c-.94-29.94-1.74-57.74-2.93-88.21-13,2.4-68.64-1.13-85.22-.17,0,38.67.3,77.47.06,117.35,13.65-.79,54.18,1.16,77.06-1.69C164,157.46,166.27,142.93,166.25,131.29Z"/><path class="cls-2" d="M166.65,131.29c-.92-29.41-1.78-58.81-2.93-88.21a.41.41,0,0,0-.51-.39c-5.34,1-10.95.82-16.35.84-8.27,0-16.54-.18-24.8-.4-14.59-.38-29.37-1.44-44-.63a.41.41,0,0,0-.4.4c0,39.12.29,78.23.06,117.35a.4.4,0,0,0,.4.4c7.7-.43,15.46-.2,23.17-.14,10.78.08,21.56.15,32.33-.14,5-.13,10-.36,15-.75,3.55-.28,8.05-.07,10.93-2.52,6.8-5.79,7.07-17.63,7.09-25.81a.4.4,0,0,0-.8,0,59,59,0,0,1-2.3,17.79,17.24,17.24,0,0,1-3.8,6.78c-2,2.11-4.68,2.34-7.43,2.63-11.52,1.2-23.16,1.27-34.73,1.3-10.76,0-21.52-.2-32.28-.12-1.78,0-3.56,0-5.34.11l-1.12,0c-.63,0-.28-1-.28-1.55q0-3.48,0-7,.05-12.35,0-24.7,0-24.41-.09-48.83,0-12.11-.05-24.23,0-2.9,0-5.8c0-.73-.27-4.44.21-4.47,1.57-.08,3.14-.11,4.71-.12,19.15-.22,38.3,1,57.44,1.16,7.42.07,15.22.47,22.56-.84l-.51-.39c1.15,29.4,2,58.81,2.93,88.21C165.87,131.8,166.67,131.8,166.65,131.29Z"/><path class="cls-2" d="M84.92,46.73c-2.12.18-5.42,1.57-5.54,4.1-.12,2.35,1.93,5.26,4.43,5.36a5.21,5.21,0,0,0,5.3-4.62,4.13,4.13,0,0,0-4.19-4.84.4.4,0,0,0,0,.8c5.48,0,3.63,8.56-1.44,7.8-1.93-.29-3.63-2.94-3.23-4.79s3-2.87,4.67-3C85.43,47.49,85.44,46.69,84.92,46.73Z"/><path class="cls-2" d="M84.55,49.1c-1.09.09-2.67.8-2.73,2.08A2.63,2.63,0,0,0,84,53.82a2.58,2.58,0,0,0,2.61-2.25,2.1,2.1,0,0,0-2.11-2.47.4.4,0,0,0,0,.8c2.16,0,1.39,3.4-.59,3.1a1.82,1.82,0,0,1-1.31-1.9c.16-.75,1.24-1.15,1.9-1.2S85.07,49.06,84.55,49.1Z"/><path class="cls-2" d="M159.22,48.25c-1.8-1.81-5.09-3.12-7.22-1.14-1.61,1.5-2,4.79-.62,6.52,3.65,4.47,11.85-.43,7.84-5.38-.33-.4-.89.17-.57.57,3.47,4.28-4.11,8.07-6.84,4-1-1.51-.33-3.89.76-5.17,1.58-1.86,4.76-.19,6.08,1.14A.4.4,0,0,0,159.22,48.25Z"/><path class="cls-2" d="M157.17,49.49c-.9-.91-2.52-1.5-3.58-.52a2.61,2.61,0,0,0-.28,3.27c1.83,2.24,5.87-.28,3.86-2.75-.33-.4-.89.17-.57.57,1.35,1.67-1.69,3.14-2.75,1.56a1.9,1.9,0,0,1,.31-2.08c.63-.74,1.93,0,2.44.52A.4.4,0,0,0,157.17,49.49Z"/><path class="cls-2" d="M79,160.36l.35,2.3a.4.4,0,0,0,.39.29c5,.33,10.14.12,15.18,0,8.48-.12,17-.34,25.43-.58,14.84-.41,29.7-.81,44.53-1.58.95,0,1.91-.08,2.85-.19a.42.42,0,0,0,.4-.4,153,153,0,0,0-.07-17.46c-.29-9-.72-17.93-1.16-26.89-.42-8.46-.87-16.91-1.3-25.37-.21-4.23-.79-8.67-.47-12.91,0-.52-.76-.51-.8,0-.32,4.24.26,8.68.47,12.91.42,8.46.87,16.91,1.3,25.37.45,9,.87,17.92,1.16,26.89.12,3.53.21,7.06.23,10.59,0,1.28,0,2.56,0,3.85,0,.52,0,1,0,1.55,0,.23,0,.45,0,.68,0,.61-.2.45.28.4-4.14.46-8.38.45-12.54.61q-12.17.48-24.35.84c-15.67.49-31.38,1.09-47.06,1-.94,0-1.87,0-2.81-.06l-1,0c.41,0,0-1.36-.1-2s-.85-.29-.77.21Z"/><path class="cls-2" d="M165.7,127.23c-.43,3.75-.59,7.51-1.26,11.23-.72,4-2.15,9.05-6.48,10.35a.41.41,0,0,0-.24.59c1,1.84,1.78,3.74.58,5.66-.85,1.37-2.52,2.28-3.79,3.21-.42.3,0,1,.41.69,1.68-1.22,3.61-2.38,4.53-4.31s-.15-4-1-5.66l-.24.59c8.28-2.48,7.56-15.61,8.33-22.36.06-.51-.75-.51-.8,0Z"/><path class="cls-1" d="M336.86,332.85c-.27,18.21-1.87,98-2.14,102.55h87c.27-4.55,1.87-84.34,2.14-102.55Z"/><path class="cls-2" d="M336.46,332.85q-.71,47.32-1.91,94.64c-.06,2.64-.09,5.28-.23,7.91a.4.4,0,0,0,.4.4h87a.41.41,0,0,0,.4-.4c.65-11.63.59-23.34.84-35q.57-27,1.07-54,.12-6.8.23-13.6a.4.4,0,0,0-.4-.4h-87a.4.4,0,0,0,0,.8h86.52c.78,0,0-.16,0,.07q0,1.82-.06,3.63-.08,4.75-.17,9.5-.49,27-1.07,54-.25,11.79-.52,23.58-.09,3.85-.19,7.69,0,1.17-.07,2.34,0,.4,0,.79c0,.75-.12.19.37.19h-86.6c-.7,0,0,.22,0,.2,0-.56,0-1.11.06-1.67.07-2.12.12-4.24.17-6.37q1.16-47.15,1.9-94.31A.4.4,0,0,0,336.46,332.85Z"/><path class="cls-2" d="M344.64,338.7c-1.61,30.87-3.21,61.93-2.43,92.84a.4.4,0,0,0,.8,0c-.78-30.91.82-62,2.43-92.84,0-.52-.78-.52-.8,0Z"/><path class="cls-2" d="M350.3,343.88c21.1-.39,42.21,0,63.31.2a.25.25,0,0,0,0-.5c-21.1-.21-42.21-.59-63.31-.2a.25.25,0,0,0,0,.5Z"/><path class="cls-2" d="M350.3,353.13c21.1-.39,42.21,0,63.31.2a.25.25,0,0,0,0-.5c-21.1-.21-42.21-.59-63.31-.2a.25.25,0,0,0,0,.5Z"/><path class="cls-2" d="M350.3,362.38c21.1-.39,42.21,0,63.31.2a.25.25,0,0,0,0-.5c-21.1-.21-42.21-.59-63.31-.2a.25.25,0,0,0,0,.5Z"/><path class="cls-2" d="M350.3,371.63c21.1-.39,42.21,0,63.31.2a.25.25,0,0,0,0-.5c-21.1-.21-42.21-.59-63.31-.2a.25.25,0,0,0,0,.5Z"/><path class="cls-2" d="M350.3,380.89c21.1-.39,42.21,0,63.31.2a.25.25,0,0,0,0-.5c-21.1-.21-42.21-.59-63.31-.2a.25.25,0,0,0,0,.5Z"/><path class="cls-2" d="M350.3,390.14c21.1-.39,42.21,0,63.31.2a.25.25,0,0,0,0-.5c-21.1-.21-42.21-.59-63.31-.2a.25.25,0,0,0,0,.5Z"/><path class="cls-2" d="M350.3,399.39c21.1-.39,42.21,0,63.31.2a.25.25,0,0,0,0-.5c-21.1-.21-42.21-.59-63.31-.2a.25.25,0,0,0,0,.5Z"/><path class="cls-2" d="M350.3,408.64c21.1-.39,42.21,0,63.31.2a.25.25,0,0,0,0-.5c-21.1-.21-42.21-.59-63.31-.2a.25.25,0,0,0,0,.5Z"/><path class="cls-2" d="M350.3,417.89c21.1-.39,42.21,0,63.31.2a.25.25,0,0,0,0-.5c-21.1-.21-42.21-.59-63.31-.2a.25.25,0,0,0,0,.5Z"/><path class="cls-2" d="M350.3,427.14c21.1-.39,42.21,0,63.31.2a.25.25,0,0,0,0-.5c-21.1-.21-42.21-.59-63.31-.2a.25.25,0,0,0,0,.5Z"/><path class="cls-1" d="M399.85,318.92c10.86,7,25.31,17.63,35.61,25.41a15.13,15.13,0,0,1-.2,3.16c-.85-.26-1.74-.47-2.59-.73a22.18,22.18,0,0,1,.63,3.21,22,22,0,0,1-3.25.11c.14,1,.21,3.34.21,3.34a19.28,19.28,0,0,1-2.85,1.55c-10.3-7.79-24.79-18.52-35.65-25.56a15.72,15.72,0,0,0,3.14-.86c-.42-.78-.8-1.62-1.22-2.4a22.29,22.29,0,0,0,3.28,0,22.21,22.21,0,0,0-.53-3.21c1,0,3.31-.45,3.31-.45S399.72,319.91,399.85,318.92Z"/><path class="cls-2" d="M399.65,319.27c6.59,4.29,13,8.83,19.4,13.43q4.75,3.43,9.46,6.93l4.39,3.28c.68.51,2.15,1.21,2.16,2.21,0,2-.78,1.7-2.29,1.27a.41.41,0,0,0-.49.49,18.42,18.42,0,0,1,.63,3.21l.39-.51a18.91,18.91,0,0,1-3.25.11.4.4,0,0,0-.4.4c.08.67.12,1.35.16,2,0,.41-.12,1.2.14,1-.57.37-1.16.71-1.76,1-1,.57-2.17-.76-2.89-1.3q-5.42-4.08-10.88-8.1c-7.36-5.41-14.79-10.74-22.45-15.72l-.1.73a20.22,20.22,0,0,0,3.14-.86.41.41,0,0,0,.24-.59L394,326l-.35.6a18.55,18.55,0,0,0,3.28,0c.2,0,.43-.17.4-.4a19.75,19.75,0,0,0-.55-3.31l-.39.51c1.15-.09,2.29-.27,3.42-.46a.4.4,0,0,0,.3-.39c0-1.19,0-2.38.11-3.57,0-.52-.75-.51-.8,0-.11,1.15-.11,2.3-.11,3.46,0-.38.21-.26-.5-.14s-1.6.24-2.41.31a.41.41,0,0,0-.39.51,13.46,13.46,0,0,1,.3,1.39q.1.66.18,1.33t.34,0a18,18,0,0,1-3.17,0c-.32,0-.47.36-.35.6.41.8.81,1.6,1.22,2.4l.24-.59a20.06,20.06,0,0,1-3.14.86.41.41,0,0,0-.1.73c9.5,6.18,18.66,12.88,27.75,19.63q3.1,2.3,6.18,4.63c2,1.49,2,1.51,4.15.26,1.16-.68,1-.82,1-2.17,0-.82-.52-1.6.32-1.59a23.11,23.11,0,0,0,2.37-.14.41.41,0,0,0,.39-.51,18.59,18.59,0,0,0-.63-3.21l-.49.49,2.59.73a.4.4,0,0,0,.49-.28c.14-.9.61-2.69.15-3.47-.63-1.07-2.72-2.08-3.72-2.83q-5.25-3.93-10.55-7.79c-7-5.13-14.17-10.18-21.48-14.93C399.62,318.29,399.21,319,399.65,319.27Z"/><path class="cls-1" d="M353.43,447.08c-10.41-7.69-24.18-19.14-34-27.54a14.81,14.81,0,0,1,.39-3.14c.83.31,1.71.57,2.54.88a35.86,35.86,0,0,1-.37-4.66l4.23.7c-.47-.91-.34-5.14-.34-5.14a22.43,22.43,0,0,1,2.23,1.22c9.81,8.4,23.61,20,34,27.69a15.83,15.83,0,0,0-3.18.66c.37.81.7,1.66,1.07,2.47a22.38,22.38,0,0,0-3.27-.19,22.25,22.25,0,0,0,.34,3.23c-1,0-3.33.25-3.33.25S353.62,446.09,353.43,447.08Z"/><path class="cls-2" d="M353.64,446.73c-6.29-4.66-12.41-9.56-18.47-14.52q-4.54-3.71-9-7.5L322,421.17c-.66-.56-2.14-1.39-2.08-2.41.12-2.25.71-1.68,2.38-1.09a.41.41,0,0,0,.49-.49,22.32,22.32,0,0,1-.36-4.55l-.51.39,4.23.7c.27,0,.61-.18.49-.49a14.14,14.14,0,0,1-.33-5l-.6.35c3,1.45,5.35,3.9,7.85,6q4.7,4,9.46,7.91c6.21,5.13,12.48,10.19,18.95,15l.1-.73a20.4,20.4,0,0,0-3.18.66.41.41,0,0,0-.24.59c.36.82.71,1.65,1.07,2.47l.45-.59a19.24,19.24,0,0,0-3.38-.2.4.4,0,0,0-.4.4,19.71,19.71,0,0,0,.35,3.34l.39-.51c-1.11,0-2.23.13-3.33.25a.41.41,0,0,0-.4.4c-.07,1.15-.14,2.31-.32,3.45-.08.51.7.72.78.21.18-1.18.27-2.36.34-3.55q-.59.4,0,.25l.92-.09c.68-.06,1.35-.11,2-.12a.41.41,0,0,0,.39-.51,18.45,18.45,0,0,1-.32-3c0,.43-.52.29.42.3a14.47,14.47,0,0,1,2.34.17.41.41,0,0,0,.45-.59c-.36-.82-.71-1.65-1.07-2.47l-.24.59a20.19,20.19,0,0,1,3.18-.66c.39-.05.33-.56.1-.73-6.64-4.92-13.07-10.13-19.43-15.39q-4.73-3.91-9.41-7.88c-2.38-2-4.59-4.25-7.41-5.63a.41.41,0,0,0-.6.35,14.6,14.6,0,0,0,.35,5.25l.49-.49-4.23-.7a.41.41,0,0,0-.51.39,23.3,23.3,0,0,0,.38,4.77l.49-.49-2.54-.88a.4.4,0,0,0-.49.28c-.16.73-.75,2.77-.35,3.45.76,1.29,2.91,2.51,4.06,3.49q5,4.27,10.12,8.46c6.53,5.38,13.14,10.69,19.95,15.73C353.65,447.73,354,447,353.64,446.73Z"/><path class="cls-1" d="M293,285.3c-28.29-1.57-57.18-1.66-85.47,1-2.09-10.65-2.88-67.66-3.23-85.3l7-5.59,79.1-5.06,8.21,80.15Z"/><path class="cls-2" d="M293,284.89c-16.18-.89-32.38-1.3-48.58-1q-12.17.21-24.32,1c-3.87.25-7.74.55-11.61.9-.88.08-.66,0-.79-.9-.1-.69-.18-1.39-.26-2.09-1.94-17.8-1.82-36-2.21-53.84-.18-8.43-.33-16.85-.48-25.28,0-1.17-.41-2.23.46-2.93l4.54-3.64,1.57-1.26c.41-.32-.1-.07,0-.08l1.09-.07,37.4-2.39,38.81-2.48,1.41-.09c.63,0-.06-.31-.06-.32l.34,3.29,1.75,17.1,4.77,46.58,1.28,12.51c.11,1.1-.61,2.29-1.08,3.52l-3.92,10.42-.52,1.37c-.18.49.59.69.78.21l3-7.88,1.87-5c.2-.52.82-1.51.76-2.09l-.94-9.17-4.66-45.49-2.61-25.48a.41.41,0,0,0-.4-.4l-73.7,4.72-4.72.3c-1.21.08-1.81.84-2.78,1.61L204.94,200c-1,.82-1,.92-1,2.28q.1,5.29.19,10.57c.35,19.36.67,38.75,1.67,58.09a114.29,114.29,0,0,0,1.35,15.45.4.4,0,0,0,.39.29c28.42-2.6,57-2.53,85.47-1C293.56,285.73,293.55,284.92,293,284.89Z"/><polyline class="cls-3" points="207.57 286.25 221.63 272.2 298.63 269.75"/><line class="cls-3" x1="221.62" y1="272.2" x2="211.32" y2="195.37"/><path class="cls-2" d="M218.48,275.92c15-1.18,30.07-.66,45.1-.55,6.91,0,13.87.1,20.77-.4,4.33-.31,8.69-.77,13-.81a.4.4,0,0,0,0-.8c-4.2,0-8.4.47-12.58.77-6.72.49-13.5.46-20.23.43-15.37-.07-30.75-.66-46.09.55-.51,0-.52.84,0,.8Z"/><path class="cls-2" d="M215.48,278.74c26.63-1.91,53.54-.61,80.18.67.52,0,.52-.78,0-.8-26.63-1.28-53.55-2.58-80.18-.67-.51,0-.52.84,0,.8Z"/><path class="cls-2" d="M211.85,282.38c13.94-.9,27.86-1.87,41.83-1.17,6.72.33,13.43.74,20.15,1.08s13.16.29,19.74.62c.52,0,.52-.78,0-.8-6.57-.33-13.16-.29-19.74-.62s-13.43-.74-20.15-1.08c-14-.71-27.89.28-41.83,1.17-.51,0-.52.84,0,.8Z"/><path class="cls-1" d="M290.42,190.31c.17,2.62,16.94,52.73,22.87,60.42l3,3.32c-2.75,2.06-31.76,6-42.56,7.1l-.57.06c-13.09,1.22-25.84,1-38.94,1-1.22-3.67-20.43-63.38-22.52-66.53Z"/><path class="cls-2" d="M290,190.31c.34,3.62,2.13,7.45,3.25,10.87q3.54,10.79,7.45,21.46c2.51,6.86,5.1,13.71,8.06,20.39a60.22,60.22,0,0,0,3.32,6.64,32.19,32.19,0,0,0,3.87,4.65l.08-.63c-2.13,1.45-5.62,1.68-8.07,2.15-4.78.92-9.6,1.65-14.42,2.35a314,314,0,0,1-33.12,3.41c-8.09.31-16.2.25-24.3.25-1.65,0-1.51.5-2-.89l-.87-2.69q-3.16-9.73-6.34-19.45c-3.06-9.35-6.14-18.7-9.32-28-1.19-3.49-2.39-7-3.66-10.44a25.22,25.22,0,0,0-2-4.85l-.35.6,73.59-5.06,5.16-.35c.51,0,.52-.84,0-.8L216.83,195l-5.16.35a.41.41,0,0,0-.35.6c2.08,3.28,3,7.77,4.29,11.4,2.51,7.25,4.93,14.53,7.34,21.82,3.65,11.06,7.18,22.16,10.85,33.21a.41.41,0,0,0,.39.29c17.29,0,34.35-.3,51.51-2.56,6.48-.85,13-1.79,19.39-2.91,2.49-.43,5-.9,7.44-1.48a11.86,11.86,0,0,0,3.93-1.32.41.41,0,0,0,.08-.63,32.19,32.19,0,0,1-3.88-4.71,59.66,59.66,0,0,1-3.19-6.42c-3-6.78-5.62-13.75-8.17-20.72q-3.73-10.2-7.13-20.52c-1.14-3.46-3-7.41-3.36-11.07C290.78,189.79,290,189.79,290,190.31Z"/><path class="cls-2" d="M210.48,196.09c.48,13.39,1,26.75,2.19,40.1.62,6.84,1.46,13.65,2.31,20.46.77,6.16,1.2,12.44,3.1,18.38.16.49.93.28.77-.21-2-6.17-2.4-12.74-3.2-19.14s-1.58-13-2.19-19.49c-1.25-13.34-1.72-26.71-2.19-40.1,0-.52-.82-.52-.8,0Z"/><path class="cls-2" d="M215.84,278c-1.44-13.06-4.54-25.89-5.19-39-.34-6.88-.19-13.77-.33-20.65s-1.42-13.64-1.26-20.43a.4.4,0,0,0-.8,0c-.15,6.46,1,13,1.23,19.45.2,6.88.05,13.77.31,20.65.5,13.5,3.75,26.64,5.23,40,.06.51.86.51.8,0Z"/><path class="cls-2" d="M205.46,199.83c.66,10.25.73,20.53,1.22,30.78.32,6.63,1,13.24,1.58,19.84s1.26,13.09,1.94,19.63c.4,3.81.63,7.72,1.35,11.49.1.51.87.29.77-.21-.7-3.7-.93-7.53-1.32-11.27q-1-9.81-1.94-19.63c-.62-6.61-1.24-13.21-1.58-19.84-.52-10.26-.56-20.53-1.22-30.78,0-.51-.84-.52-.8,0Z"/><path class="cls-2" d="M149.67,386q-3.81,2.09-7.72,4-2,1-4.11,1.91l-1.11.47q-2.16,1.21-1.13-3.21c.74-.49,1.52-.91,2.3-1.33,2.48-1.35,5.09-2.45,7.61-3.74,1.49-.76,4-2,5.34-.19,1.58,2.13-.47,3.21-2.08,4.25-.65.42,0,1.46.61,1,1.09-.71,3.28-1.75,3.35-3.31a4.38,4.38,0,0,0-2.24-3.85c-1.53-.83-3.61.12-5,.75-2.5,1.11-5,2.41-7.41,3.62-1.67.82-4.86,2-5,4.27-.07,1.43.56,3.08,2.24,3.19,2.12.14,4.7-1.62,6.55-2.49,2.85-1.36,5.66-2.82,8.43-4.34.68-.37.07-1.42-.61-1Z"/><path class="cls-2" d="M91.17,329.56a81.72,81.72,0,0,0,1.77,8.71c.5,1.95.88,4.56,2.43,6a2.9,2.9,0,0,0,3.6,0c1.49-1.09.83-3.35.6-4.85a83.3,83.3,0,0,0-2-8.66c-.43-1.61-.88-4.42-2.53-5.35a4.26,4.26,0,0,0-4.51.44c-1.64,1.15-1.11,3.74-.83,5.37.13.76,1.29.44,1.16-.32-.38-2.21,0-5.15,3-4.71,1.45.21,1.9,2.51,2.23,3.62.89,3,1.64,6.13,2.23,9.23.27,1.44,1.16,4.55-1.2,4.69-1.88.11-2.45-3.73-2.8-5a75.26,75.26,0,0,1-2-9.43c-.11-.77-1.27-.44-1.16.32Z"/><path class="cls-2" d="M147.4,331.28c-.86,14.48-1.59,29-2.07,43.48-.24,7.16-.53,14.34-.46,21.5s.62,14.39.41,21.6c0,1.56-.15,3.12-.29,4.68,0,.53-.12,3.31-1,3.27l-2.83-.09c-3.48-.09-7-.08-10.46,0-7,.09-14.09.4-21.14.69-14.36.59-28.76,1.08-43.09-.41l.39.51c1.08-7.55.69-15.14.33-22.73-.39-8-.19-16.05,0-24.09q.35-12.31.94-24.62.28-5.93.6-11.87c.06-1.08.85-11.51.29-11.51H147.8a.4.4,0,0,0,0-.8l-73.59,0H69.05a.41.41,0,0,0-.4.4c-.94,15.79-1.72,31.6-2.19,47.41-.23,7.73-.49,15.46-.15,23.19.35,8.14.95,16.29-.21,24.4a.41.41,0,0,0,.39.51c26.11,2.71,52.3-1.18,78.46-.12a.4.4,0,0,0,.39-.29c1-7.19.85-14.43.59-21.68-.29-8-.18-16,0-24,.45-16.47,1.27-32.93,2.25-49.38C148.24,330.76,147.43,330.76,147.4,331.28Z"/><path class="cls-2" d="M147.7,332.87h1c-.37,0-.16,2.37-.16,2.56,0,2,.05,3.94.07,5.91,0,4.25,0,8.51,0,12.76-.08,8.09-.32,16.18-.23,24.28s-.07,15.88-.64,23.85c-.29,3.93-.55,7.86-.58,11.81s.45,7.82.25,11.75c-.05,1,.63,1.3-.27,1.31l-1.8,0-6.57.08-21.29.28-32.62.43L74,428l-2.84,0h-.63c-.26,0,.33,0,.33.27v-1.61a.4.4,0,0,0-.8,0v1.74a.4.4,0,0,0,.4.4l73.16-1,4-.05a.41.41,0,0,0,.4-.4,61.85,61.85,0,0,0,0-10.63,97.32,97.32,0,0,1,.3-11.68c.53-8,1-15.93.89-23.95-.19-16.25.47-32.5.1-48.75a.41.41,0,0,0-.4-.4H147.7a.4.4,0,0,0,0,.8Z"/><path class="cls-1" d="M328.84,67.87a146.35,146.35,0,0,1,.29,18.67c-1.31,10.34-.44,20,.3,30.38a378.59,378.59,0,0,1,1.34,40.15c4.27,0,8.55.12,12.83.26,14.59.66,29.23,2.44,43.8,2.63,11.72.15,23.69-1.21,35.46.2a59.07,59.07,0,0,0,.57-9.13c-.65-11.85-.18-23.58-.51-35.44-.36-16.29-2.14-32.68-2.34-49-4.75,0-9.36-.41-14.11-.53-6.18-.06-12.5.2-18.71-.65Z"/><path class="cls-2" d="M328.44,67.87c1.55,11.57-.67,23.2-.3,34.77.29,9,1.24,18,1.75,27,.52,9.14.74,18.31.48,27.46a.4.4,0,0,0,.4.4c15.36,0,30.61,1.64,45.93,2.51s30.87-1.16,46.16.59c.24,0,.38-.21.4-.4.89-7.31.28-14.58.22-21.93-.07-7.87,0-15.74-.18-23.61-.38-16-2.09-32-2.31-48a.41.41,0,0,0-.4-.4c-7.81,0-15.64-.46-23.45-.56-3.53,0-7.05-.72-10.56-.57l-16.81.69-40.16,1.65-.78,0c-.52,0-.52.82,0,.8L364,66.82,384.09,66l3.67-.15a32.58,32.58,0,0,1,3.76.39c1.87.15,3.75.2,5.63.23,4.06.08,8.12,0,12.18.14,1.21.05,10.87,0,10.88,1,.06,4.25.24,8.49.46,12.73.42,8.17,1,16.33,1.45,24.5s.55,16.37.55,24.56c0,8,.55,16.08.38,24.08,0,1.7-.21,3.4-.39,5.08-.2,1.88-3.14.87-4.57.78-4.15-.28-8.33-.24-12.49-.15-8,.17-16,.53-24,.23-16.3-.6-32.5-2.59-48.83-2.73-1.35,0-1.55-.19-1.52-1.55s0-2.61.06-3.91c0-2.29,0-4.58,0-6.87-.07-4.59-.26-9.17-.5-13.76-.47-9-1.37-18-1.76-27-.52-11.89,1.85-23.83.26-35.71C329.17,67.37,328.37,67.36,328.44,67.87Z"/><path class="cls-1" d="M426.34,163c-14.29-.41-28.48-.51-42.56-1.94-11-1.22-19.77-4.35-27.47-12.66-17-18.37-23-33.27-22.75-52.46,0-10.41.2-20.62.82-30.82,14.7.61,29.19,1.22,44.09.82,12.45-.41,24.9-1,37.36-.82,3.47,0,7.14,0,10.62.2-1.84,30-2.45,60.22-.61,90.23C426,158,426.14,160.53,426.34,163Z"/><path class="cls-2" d="M426.34,162.57c-8.09-.23-16.17-.37-24.26-.7-7.83-.32-15.8-.6-23.52-2a39.86,39.86,0,0,1-17.44-7.56c-5.73-4.44-10.47-10.67-14.64-16.54A65.6,65.6,0,0,1,334.07,101c-.42-7.48-.08-15.06.13-22.54q.16-5.75.48-11.5c.12-2.3,2.88-1.38,4.6-1.31l6.83.27c14.75.55,29.42.45,44.16-.07,7.21-.25,14.42-.45,21.63-.44,3.38,0,6.76,0,10.13.08,1.8,0,4-.61,3.89,1.74q-.18,3-.34,5.94c-1.62,29.87-2,59.92.35,89.76,0,.51.84.52.8,0-2.53-32.49-1.87-65.18.1-97.68a.41.41,0,0,0-.4-.4c-15-.8-30.05,0-45,.51-15.69.55-31.37-.06-47-.72a.41.41,0,0,0-.4.4c-.47,8-.7,16-.79,24-.07,6.39-.15,12.75.8,19.08,1.79,12,7.51,22.64,14.86,32.11,4.11,5.29,8.58,10.56,14.14,14.36a41.5,41.5,0,0,0,16.09,6.12c7.22,1.32,14.71,1.54,22,1.86,8.08.36,16.17.49,24.25.71l1,0A.4.4,0,0,0,426.34,162.57Z"/><path class="cls-2" d="M374.19,158.6c-4.78-6.34-5.79-14.9-4.51-22.57a.41.41,0,0,0-.28-.49c-4.47-1.12-8.93-2.28-13.28-3.82-3.92-1.39-8.05-3.07-11.06-6-4.89-4.79-9.28-12.24-10.47-19-.09-.51-.86-.29-.78.21.91,5.18,3.72,10.11,6.64,14.4a25.83,25.83,0,0,0,12.23,9.94,90.07,90.07,0,0,0,10.7,3.58c1.66.46,3.32.87,5,1.29.78.2.05,4,0,4.55-.3,6.38,1.22,13.2,5.11,18.35.31.41,1,0,.69-.41Z"/><path class="cls-2" d="M368.14,145.22c.46,4.08.38,8.33,1.23,12.36.11.51.88.29.78-.21-.83-4-.75-8.13-1.2-12.14-.06-.51-.86-.51-.8,0Z"/><path class="cls-2" d="M365.78,135.25c1.27,7,.3,14.35,1.33,21.41.08.51.85.29.78-.21-1-7.06-.06-14.38-1.33-21.41-.09-.51-.87-.29-.78.21Z"/><path class="cls-2" d="M363.63,134.58c.16,3.27.14,6.55.22,9.82a66.12,66.12,0,0,0,1.35,10.93c.1.51.87.29.78-.21a68.37,68.37,0,0,1-1.34-11.28c-.08-3.08-.06-6.18-.21-9.26,0-.52-.83-.52-.8,0Z"/><path class="cls-2" d="M360.4,133.67c.68,6.56.23,13.32,1.52,19.81.1.51.88.29.78-.21-1.28-6.41-.81-13.11-1.49-19.6-.05-.51-.86-.52-.8,0Z"/><path class="cls-2" d="M357.33,132.79a84,84,0,0,0,2,18.31c.12.5.9.29.78-.21a83,83,0,0,1-2-18.1.4.4,0,0,0-.8,0Z"/><path class="cls-2" d="M354.83,131.82c-.55,5.48.66,11.48,1.54,16.88.08.51.86.29.78-.21-.87-5.33-2.07-11.24-1.52-16.66.05-.52-.75-.51-.8,0Z"/><path class="cls-2" d="M351.15,130.73a46.75,46.75,0,0,0,2,14.6c.16.49.94.28.78-.21a45.89,45.89,0,0,1-2-14.39.4.4,0,0,0-.8,0Z"/><path class="cls-2" d="M348.55,129a81.18,81.18,0,0,0,1.13,12.27c.1.51.88.29.78-.21a79.72,79.72,0,0,1-1.1-12.06c0-.52-.83-.52-.8,0Z"/><path class="cls-2" d="M347,128.17c0,3-.74,6.17-.16,9.19.1.51.87.29.78-.21-.57-2.93.14-6,.18-9a.4.4,0,0,0-.8,0Z"/><path class="cls-2" d="M345.19,126.76c-.17,2.57-.87,5.27-.46,7.84.08.51.86.29.78-.21-.39-2.48.33-5.15.49-7.63,0-.52-.77-.51-.8,0Z"/><path class="cls-2" d="M343.68,125.47c-.17,2.19-.91,4.49-.55,6.69.09.51.86.29.78-.21-.35-2.11.41-4.37.57-6.48,0-.52-.76-.51-.8,0Z"/><path class="cls-2" d="M342.17,123.95a48.58,48.58,0,0,0-.57,5.56c0,.52.82.52.8,0a49.05,49.05,0,0,1,.57-5.56c0-.52-.76-.51-.8,0Z"/><path class="cls-2" d="M340.82,122c-.16,1.7-.81,3.54-.43,5.25.11.5.89.29.78-.21-.36-1.61.31-3.42.46-5,0-.52-.75-.51-.8,0Z"/><path class="cls-2" d="M339.32,119.63c-.14,1.45-.46,2.87-.59,4.31,0,.52.76.51.8,0,.13-1.44.45-2.87.59-4.31,0-.52-.75-.51-.8,0Z"/><path class="cls-1" d="M386,43c1,12.91,1.26,30.81,1.29,43.73a15.08,15.08,0,0,1-2.64,1.76c-.31-.83-.68-1.67-1-2.5a22.3,22.3,0,0,1-2.18,2.45,22.15,22.15,0,0,1-2-2.52c-.68.7-2.53,2.18-2.53,2.18a19.19,19.19,0,0,1-3-1.33c0-12.91-.24-30.94-1.2-43.85a15.83,15.83,0,0,0,2.58,2c.37-.81.8-1.62,1.17-2.42a22.36,22.36,0,0,0,2,2.6,22.08,22.08,0,0,0,2.23-2.36c.62.74,2.36,2.37,2.36,2.37S385.12,43.47,386,43Z"/><path class="cls-2" d="M385.58,43c.55,7.56.82,15.14,1,22.72q.15,5.88.21,11.77,0,2.77,0,5.53,0,1.49,0,3c0,1-1.7,1.73-2.44,2.13l.59.24c-.33-.84-.67-1.67-1-2.5a.41.41,0,0,0-.73-.1,18,18,0,0,1-2,2.29c.32-.32.57.16,0-.52a15.1,15.1,0,0,1-1.45-1.85.41.41,0,0,0-.63-.08c-.49.47-1,.91-1.52,1.35l-.71.59q-.43.3,0,.1a23.4,23.4,0,0,1-2.32-1c-.51-.25-.23-2.34-.23-2.8q0-6.78-.14-13.56c-.15-9.13-.39-18.28-1.06-27.39l-.69.28a20.88,20.88,0,0,0,2.66,2,.4.4,0,0,0,.55-.14c.39-.81.79-1.61,1.17-2.42h-.69a19.25,19.25,0,0,0,2.05,2.68.4.4,0,0,0,.57,0,19.53,19.53,0,0,0,2.29-2.44l-.63.08c.74.83,1.55,1.6,2.36,2.37a.4.4,0,0,0,.49.06c.95-.72,1.9-1.44,2.91-2.07.44-.27,0-1-.41-.69-1,.61-1.9,1.3-2.82,2q.58.2.12-.13l-.67-.64c-.49-.47-1-1-1.41-1.46a.41.41,0,0,0-.63.08,18.54,18.54,0,0,1-2.09,2.21c.34-.33.54.14,0-.56a14.54,14.54,0,0,1-1.4-1.89.4.4,0,0,0-.69,0c-1,2.19-1.25,2-3.12.36-.24-.21-.71-.09-.69.28.76,10.49,1,21,1.12,31.53q0,4,.07,7.92c0,.78-.49,4.33.21,4.74s2.49,1.58,3.27,1.37c.93-.25,2-1.64,2.71-2.29l-.63-.08a19.62,19.62,0,0,0,2.11,2.6.4.4,0,0,0,.57,0A19.15,19.15,0,0,0,384,86.15l-.73-.1c.33.84.66,1.67,1,2.5a.41.41,0,0,0,.59.24c.68-.37,2.6-1.19,2.82-2,.42-1.53,0-3.77,0-5.36q0-6.6-.19-13.19c-.18-8.43-.46-16.87-1.08-25.28C386.35,42.46,385.55,42.46,385.58,43Z"/><polyline class="cls-1" points="264.42 319.04 266.29 320.43 267.57 360.69 266.55 361.84"/><path class="cls-2" d="M264.22,319.39l1.13.84c.4.3.55.65.54.23l0,.75.13,4q.23,7.3.46,14.6l.48,15,.14,4.54c0,1.43.08,1.09-.87,2.16-.34.38.22,1,.57.57.72-.8,1.15-1.06,1.12-2.07q-.07-2.24-.14-4.48l-.5-15.76q-.24-7.63-.48-15.26-.06-1.87-.12-3.73c0-1.08-1.28-1.53-2.08-2.13-.42-.31-.82.39-.41.69Z"/><path class="cls-1" d="M259.5,319.82c1.7,14.44.65,28.08,2.71,42.71l4.34-.69L264.42,319Z"/><path class="cls-2" d="M259.1,319.82c1.61,14.23.79,28.61,2.72,42.81,0,.23.3.31.49.28l4.34-.69a.4.4,0,0,0,.29-.39q-1.06-21.4-2.12-42.8a.41.41,0,0,0-.51-.39l-4.92.78c-.51.08-.29.86.21.78l4.92-.78L264,319l1.7,34.25q.18,3.57.35,7.14,0,.67.07,1.33c0-.35.33-.32-.56-.18L263,362c-1.53.24-.58-1.16-.72-2.39-.23-1.92-.39-3.84-.54-5.76-.29-3.77-.42-7.56-.54-11.34-.24-7.58-.4-15.15-1.26-22.69C259.85,319.31,259,319.3,259.1,319.82Z"/><path class="cls-1" d="M307.44,347.88c.39,1.39-7,53.8-9.33,94-4.38-1.81-82.41-8-93.23-9.91a564,564,0,0,0,10.46-72.87c.54-7.74,1.14-15.7,9.27-19.2,8-3.43,28.82,2.08,42.07,4C282.29,346.4,291.69,346.76,307.44,347.88Z"/><path class="cls-2" d="M307.05,348a11.64,11.64,0,0,1-.21,2.71c-.24,2.31-.51,4.61-.78,6.91-.9,7.69-1.83,15.38-2.71,23.07-2.33,20.37-4.45,40.78-5.65,61.24l.51-.39c-3.34-1.3-7.67-1.24-11.18-1.63-7.71-.87-15.43-1.6-23.15-2.34-16.6-1.58-33.23-3-49.81-4.79-2.45-.26-4.91-.53-7.36-.87l-1.13-.17c-.79-.12.09-1.68.25-2.48q1.25-6.2,2.38-12.42c2.85-15.58,5.11-31.28,6.62-47.05,1.05-11-.68-29,14.28-30.42,5.62-.54,11.46.48,17,1.38,6,1,11.94,2.22,17.92,3.21,14.38,2.39,28.87,3.31,43.4,4.33.52,0,.51-.77,0-.8-14.25-1-28.42-2-42.54-4.2-11.27-1.78-22.65-5.05-34.13-4.82-4.38.09-8.34,1.4-11.36,4.71-3.24,3.55-3.88,8.74-4.28,13.32-1.41,16-3,31.86-5.54,47.71-1.49,9.27-3.22,18.5-5.1,27.7a.41.41,0,0,0,.28.49c4.74.84,9.58,1.21,14.37,1.7,8.22.84,16.44,1.6,24.67,2.37,15.87,1.49,31.79,2.79,47.61,4.74,2.1.26,4.58.31,6.59,1.09.26.1.49-.15.51-.39,1.21-20.7,3.38-41.34,5.73-61.93.87-7.61,1.79-15.21,2.68-22.81.26-2.24.53-4.48.76-6.72a9.53,9.53,0,0,0,.16-2.68C307.73,347.26,307,347.48,307.05,348Z"/><path class="cls-2" d="M216.07,356.63c1.4-5.8,6-6.29,11.1-6.76a.41.41,0,0,0,.39-.3,55.8,55.8,0,0,1,1.41-6.11c.79-2.23,3.32-3.09,5.33-3.84.48-.18.27-1-.21-.78-1.8.67-4,1.4-5.19,3.08-1.31,1.92-1.46,4.52-1.94,6.74-.17.76-6.14,1.23-7.16,1.71-2.57,1.21-3.84,3.35-4.49,6-.12.5.65.72.77.21Z"/><polyline class="cls-1" points="262.36 318.27 263.7 319.9 263.26 361.18 262.12 362.21"/><path class="cls-2" d="M262.08,318.56c.9,1.09,1.23,1,1.21,2.1q0,2.13,0,4.26L263.08,340l-.16,15.06q0,2.41-.05,4.81c0,1.45,0,1-1,2-.38.35.18.92.57.57.81-.73,1.25-.92,1.26-1.94l0-4.4q.09-8.06.17-16.12.08-7.73.17-15.46,0-2.09,0-4.19c0-1-.8-1.62-1.45-2.4-.33-.4-.89.17-.57.57Z"/><path class="cls-1" d="M257.2,318.6c.17,14.54,0,29.08.54,43.84l4.38-.23.06-43.87Z"/><path class="cls-2" d="M256.8,318.6c.16,14.62,0,29.23.54,43.84a.4.4,0,0,0,.4.4l4.38-.23a.41.41,0,0,0,.4-.4q0-21.94.06-43.87a.4.4,0,0,0-.4-.4l-5,.26c-.52,0-.52.83,0,.8l4.46-.23c.77,0,.12-.37.12-.31q0,.37,0,.75,0,3.57,0,7.15,0,11.8,0,23.59v11.69c0,.17,0,.34,0,.52s0-.31.34-.33l-1.21.06-2.59.13c-.78,0-.13.13-.15-.56,0-1-.06-2-.09-2.95-.12-4.24-.18-8.48-.23-12.72-.09-8.1-.08-16.19-.15-24.29q0-1.45,0-2.91A.4.4,0,0,0,256.8,318.6Z"/><path class="cls-2" d="M257.35,341.56c1.13.25,2.28-.27,3.4-.06.51.09.72-.68.21-.78-1.13-.21-2.29.3-3.4.06-.5-.11-.72.66-.21.78Z"/><path class="cls-2" d="M263.76,339.85a1.78,1.78,0,0,0-.51,2.23,1.47,1.47,0,0,0,2,.42c1.3-.88.1-3.54-1.39-2.71-.45.25,0,.95.41.69s.66.4.72.66a.74.74,0,0,1-.16.67c-.23.25-.66.07-.86-.12-.39-.37.08-1,.37-1.27S264.16,339.52,263.76,339.85Z"/><path class="cls-2" d="M263.54,329c4.18.5,8-1.88,11.2-4.24,3.67-2.68,7-5.8,10.5-8.74,4.19-3.54,8.9-6.91,14.56-7.18,6.56-.32,10.15,4.73,12.88,9.91.24.46.93.05.69-.41-2.14-4.06-4.58-8-9.06-9.67-4.79-1.8-10.08.14-14.18,2.67s-7.85,6.17-11.63,9.36c-4.07,3.43-9.21,8.17-15,7.49-.51-.06-.51.74,0,.8Z"/><path class="cls-2" d="M256.89,327.82c-6.75-1.09-12.48-4.49-18.18-8.08-4.75-3-9-5.7-14.79-5.9a17.16,17.16,0,0,0-12.55,4.67c-1.41,1.37-2.46,3-2.17,5,.31,2.15,3,3.67,4.67,4.66.44.27.85-.42.41-.69-2.58-1.57-5.66-3.59-3.53-7a13.16,13.16,0,0,1,6.35-4.72,19,19,0,0,1,12.9,0c4.69,1.59,8.89,5.15,13.13,7.66a38.76,38.76,0,0,0,13.55,5.2c.51.08.72-.69.21-.78Z"/><path class="cls-1" d="M169.77,191.9c.89,4.28,5.56,12.19,5.56,12.19-5.28,18.19-13.12,63.46-18.83,89.52-28.59-1.57-76-4.55-76-4.55s-5.18-6.61-7.32-9.82Z"/><path class="cls-2" d="M169.39,192c1,4.18,3.22,8.13,5.34,11.83.48.85-.58,3-.84,4-.58,2.22-1.11,4.45-1.64,6.69-2.59,11.09-4.78,22.27-7,33.44-2.35,11.92-4.64,23.84-7.08,35.74q-.77,3.73-1.56,7.45c-.34,1.57-.23,2-1.94,1.92l-4.43-.25-17.15-1Q107,290.33,81,288.69l-.41,0c.4,0,0-.19-.26-.55q-2.29-2.94-4.51-5.94c-.36-.49-2-2.94-2.22-2.71l.59-.54,7.3-6.6,66.26-59.94,22.33-20.2c.38-.35-.19-.91-.57-.57l-49.94,45.18L72.94,279a.4.4,0,0,0-.06.49c2.08,3.08,4.38,6,6.65,9a2.06,2.06,0,0,0,2.14,1.12l16.7,1c19.38,1.19,38.75,2.38,58.14,3.44a.4.4,0,0,0,.39-.29c4.25-19.43,7.78-39,11.74-58.5,1.74-8.59,3.53-17.19,5.66-25.69.54-2.16,2-4.6.83-6.61-2-3.48-4-7.2-5-11.12C170,191.29,169.27,191.5,169.39,192Z"/><path class="cls-2" d="M170.47,195.16c-1.93,16-6.41,31.49-9.92,47.2-1.77,7.93-3.14,16-4.56,24q-1,5.39-2,10.75c-.24,1.19-.41,2.39-.56,3.59-.1.79.42,1.33-.34,1.43-23,3.33-46-4.1-69-1.43-2.71.31-5.77.75-8.07,2.33-.42.29,0,1,.41.69,4.46-3.07,11.61-2.67,16.75-2.73a224.15,224.15,0,0,1,24.43,1.28c12,1.16,24.18,2.53,36.15.57a.41.41,0,0,0,.29-.39c.73-6.93,2.39-13.81,3.61-20.67,1.36-7.68,2.76-15.36,4.59-22.95,3.49-14.45,7.29-28.84,9.07-43.63.06-.51-.74-.51-.8,0Z"/><path class="cls-2" d="M172.27,200.59c-4.66,14.7-7.28,30.14-10.36,45.24q-2.34,11.49-4.52,23c-.32,1.7-2.81,16.81-2.94,16.81l-34-.24-42.66-.3a.4.4,0,0,0,0,.8l73.07.51,3.78,0a.4.4,0,0,0,.39-.29c2.52-14.34,5.28-28.63,8.2-42.89s5.42-28.65,9.79-42.47c.16-.5-.62-.71-.77-.21Z"/><path class="cls-2" d="M174.05,203.09c-3.68,15-8.36,29.65-10.9,44.9-1.58,9.49-3.35,19-5.21,28.4-.77,3.9-1.54,7.8-2.47,11.66q-.2.82-.42,1.63c-.17.63-.36.58.09.59l-.93,0-14.06-.49-60.4-2.09c-.52,0-.52.79,0,.8L152.21,291l2.95.1a.41.41,0,0,0,.39-.29c1.46-4.16,2.08-8.73,2.94-13,1.36-6.83,2.64-13.69,3.87-20.54,1.34-7.46,2.47-15,4.18-22.35,2.46-10.59,5.7-21,8.29-31.55.12-.5-.65-.72-.77-.21Z"/><path class="cls-1" d="M73,279.28c20.6-8.3,44.9-1.54,66.11,1.23a47.58,47.58,0,0,0,13.22,0v-.31c.92-4,.92-8,1.85-12.3,5.84-25.21,10-50.79,15.58-76-4.92,1.23-9.74.67-15-.26-10.46-1.23-20-5.84-30.14-7.38-12-2.15-21.22-1.54-33.21.92Z"/><path class="cls-2" d="M73.12,279.67c12.4-4.87,25.81-4.47,38.81-2.86,13.31,1.64,27,5.78,40.42,4.11a.41.41,0,0,0,.4-.4c0-2.58.82-5.51,1.13-8.1.48-4.08,1.55-8.07,2.43-12.07,1.69-7.68,3.24-15.39,4.76-23.1,3-15.09,5.8-30.21,9.09-45.23a.41.41,0,0,0-.49-.49c-6.82,1.56-14.2.15-20.93-1.35-6.35-1.41-12.47-3.7-18.79-5.26-12.84-3.16-25.73-2.71-38.6-.11a.39.39,0,0,0-.28.28L76.74,258.19l-4.12,21c-.1.51.67.72.77.21l14.34-73.11,3-15.07.85-4.35.23-1.16c.13-.64-.05-.15.76-.32a86.26,86.26,0,0,1,40.61,1.19c6.29,1.73,12.44,3.92,18.88,5.07,5.89,1.06,11.93,2,17.85.64l-.49-.49c-3.29,15-6.12,30.14-9.09,45.23-1.46,7.39-3,14.78-4.55,22.14-.82,3.78-1.83,7.54-2.42,11.36-.23,1.5-.38,3-.55,4.52a49,49,0,0,0-.82,5.16c0,.4-8.14.33-9.12.28a107,107,0,0,1-11-1.45c-6.61-1-13.21-2.19-19.85-3-13-1.66-26.59-2-39,2.89C72.43,279.08,72.64,279.86,73.12,279.67Z"/><path class="cls-2" d="M98.06,189.78a2.19,2.19,0,0,0-2.7,1.16,2.11,2.11,0,0,0,.94,2.56,2.29,2.29,0,0,0,3.15-.93,2,2,0,0,0-1.39-2.8.4.4,0,0,0-.21.77,1.17,1.17,0,0,1,.86,1.72,1.5,1.5,0,0,1-2.09.48,1.29,1.29,0,0,1-.51-1.52c.23-.74,1.1-.82,1.74-.68S98.56,189.89,98.06,189.78Z"/><path class="cls-2" d="M89.14,245.81a2.19,2.19,0,0,0-2.7,1.16,2.11,2.11,0,0,0,.94,2.56,2.29,2.29,0,0,0,3.15-.93,2,2,0,0,0-1.39-2.8.4.4,0,0,0-.21.77,1.17,1.17,0,0,1,.86,1.72,1.5,1.5,0,0,1-2.09.48,1.29,1.29,0,0,1-.51-1.52c.23-.74,1.1-.82,1.74-.68S89.65,245.92,89.14,245.81Z"/><path class="cls-2" d="M93.24,228.8a2.2,2.2,0,0,0-2-2.26,2.09,2.09,0,0,0-2.12,1.74A2.28,2.28,0,0,0,91,230.94a2,2,0,0,0,2.22-2.14c0-.52-.82-.52-.8,0A1.17,1.17,0,0,1,91,230.13a1.5,1.5,0,0,1-1-1.85,1.29,1.29,0,0,1,1.3-.94c.78,0,1.11.8,1.16,1.46S93.28,229.31,93.24,228.8Z"/><path class="cls-2" d="M93.95,208.68a2.16,2.16,0,0,0-2.06,2.06,2.09,2.09,0,0,0,1.83,2,2.28,2.28,0,0,0,2.57-2,2,2,0,0,0-2.24-2.12c-.51,0-.52.85,0,.8.83-.07,1.56.41,1.43,1.32A1.5,1.5,0,0,1,93.72,212a1.29,1.29,0,0,1-1-1.23c0-.83.78-1.19,1.47-1.28C94.67,209.38,94.45,208.61,93.95,208.68Z"/><path class="cls-2" d="M85.18,262a2.16,2.16,0,0,0-2.06,2.06,2.09,2.09,0,0,0,1.83,2,2.28,2.28,0,0,0,2.57-2A2,2,0,0,0,85.29,262c-.51,0-.52.85,0,.8.83-.07,1.56.41,1.43,1.32A1.5,1.5,0,0,1,85,265.32a1.29,1.29,0,0,1-1-1.23c0-.83.78-1.18,1.47-1.28C85.91,262.73,85.69,262,85.18,262Z"/><path class="cls-2" d="M97.44,190.79c-1.92-2.36-4-3.62-7.12-3.56a8,8,0,0,0-6.06,3.11c-2.46,3.44-2.12,10.19,2.79,11.31,1,.23,1.44-1.32.43-1.55-3.66-.83-3.71-5.86-2.19-8.45a6.52,6.52,0,0,1,5-2.82c2.6-.3,4.46,1.22,6,3.09.66.8,1.79-.34,1.14-1.14Z"/><path class="cls-2" d="M94,209.75c-1.92-2.36-4-3.62-7.12-3.56a8,8,0,0,0-6.06,3.11c-2.46,3.44-2.12,10.19,2.79,11.31,1,.23,1.44-1.32.43-1.55-3.66-.83-3.72-5.86-2.19-8.45a6.52,6.52,0,0,1,5-2.82c2.6-.3,4.46,1.22,6,3.09.66.8,1.79-.34,1.14-1.14Z"/><path class="cls-2" d="M90.8,227.45c-1.92-2.36-4-3.62-7.12-3.56A8,8,0,0,0,77.62,227c-2.46,3.44-2.12,10.19,2.79,11.31,1,.23,1.44-1.32.43-1.55-3.66-.83-3.71-5.86-2.19-8.45a6.52,6.52,0,0,1,5-2.82c2.6-.3,4.46,1.22,6,3.09.66.8,1.79-.34,1.14-1.14Z"/><path class="cls-2" d="M88.42,246.62c-1.63-2-3.71-4.09-6.41-4.31A8.79,8.79,0,0,0,75,244.75c-3.36,3.27-2.62,9.45,1.45,11.72.91.51,1.71-.88.81-1.39-3.4-1.9-3.48-6.45-1.12-9.2,1.56-1.82,4.21-2.26,6.45-1.86,2,.36,3.54,2.27,4.74,3.73.66.8,1.79-.34,1.14-1.14Z"/><path class="cls-2" d="M85.48,263.22c-1.63-2-3.71-4.09-6.41-4.31A8.79,8.79,0,0,0,72,261.35c-3.36,3.27-2.62,9.44,1.45,11.72a.8.8,0,0,0,.81-1.39c-3.4-1.9-3.48-6.45-1.12-9.2,1.56-1.82,4.21-2.26,6.45-1.86,2,.36,3.54,2.26,4.74,3.73.66.8,1.79-.34,1.14-1.14Z"/><path class="cls-1" d="M311.11,149.89c.54-1.34-9.76-54.84-7.89-95.09-4.55,1.34-82.79-.67-93.76.13a563.79,563.79,0,0,1,2.81,73.56c-.27,7.76-.5,15.73,7.22,20.06,7.57,4.24,28.88.93,42.26.4C277.54,148.14,295.33,149.35,311.11,149.89Z"/><path class="cls-2" d="M311.5,150a7.16,7.16,0,0,0-.2-2.57c-.29-2.19-.62-4.38-.95-6.57-1.14-7.74-2.24-15.48-3.2-23.24-2.58-20.79-4.46-41.86-3.53-62.82a.4.4,0,0,0-.51-.39c-3.62,1-8.13.42-11.83.45-7.86,0-15.72,0-23.58-.1-16.56-.16-33.13-.48-49.69-.42-2.85,0-5.71,0-8.56.19a.41.41,0,0,0-.4.4c1.58,16.3,2.66,32.64,3,49q.24,12.27-.16,24.54c-.16,5.1-.38,10.38,2,15,4.65,9.11,17.58,7.77,26,7.33,13.07-.68,26-1.94,39.08-1.74,10.71.17,21.42.79,32.13,1.16.52,0,.52-.79,0-.8-15.27-.53-30.54-1.55-45.82-1.09-11.91.36-23.8,2.28-35.73,1.81-5.53-.22-10.89-1.21-14.33-6-3.55-4.94-2.67-12-2.5-17.69.48-16.34,0-32.7-1-49-.25-3.93-.55-7.85-.87-11.77q-.24-2.95-.51-5.89-.13-1.48-.27-3c-.05-.53-.61-1.57-.14-1.6,2-.12,4.06-.13,6.09-.15,7.15-.07,14.3,0,21.45.08,17.15.16,34.3.47,51.45.43,3.26,0,6.52,0,9.78-.12a20.4,20.4,0,0,0,4.63-.36l-.51-.39c-.91,20.51.9,41.11,3.36,61.46.93,7.72,2,15.42,3.15,23.11.35,2.39.71,4.78,1,7.17.12.86.59,2.41.35,3.25A.4.4,0,0,0,311.5,150Z"/><path class="cls-2" d="M212,131.33c1.25,1.91,3.31,2.53,5.47,2.9a32.43,32.43,0,0,0,10.27.47l-.45-.59c-2.34,5.08.12,11.18,1.27,16.25.12.5.89.29.77-.21-1.1-4.82-3.58-10.8-1.35-15.63a.41.41,0,0,0-.45-.59,30.63,30.63,0,0,1-8.24-.3c-2.37-.26-5.16-.51-6.59-2.71-.28-.43-1,0-.69.41Z"/><path class="cls-2" d="M218.6,59.74a3.34,3.34,0,0,0-4,2,3,3,0,0,0,1.49,4A3.31,3.31,0,0,0,220.38,64a3.13,3.13,0,0,0-1.68-4.26c-.47-.22-.87.47-.41.69a2.36,2.36,0,0,1,1.39,3.17,2.52,2.52,0,0,1-3.4,1.27,2.21,2.21,0,0,1-1-2.79,2.53,2.53,0,0,1,3.1-1.61C218.89,60.63,219.1,59.85,218.6,59.74Z"/><path class="cls-2" d="M231.64,59.74a3.34,3.34,0,0,0-4,2,3,3,0,0,0,1.49,4A3.31,3.31,0,0,0,233.42,64a3.13,3.13,0,0,0-1.68-4.26c-.47-.22-.87.47-.41.69a2.36,2.36,0,0,1,1.39,3.17,2.52,2.52,0,0,1-3.4,1.27,2.21,2.21,0,0,1-1-2.79,2.53,2.53,0,0,1,3.1-1.61C231.93,60.63,232.15,59.85,231.64,59.74Z"/><path class="cls-2" d="M244.68,59.74a3.34,3.34,0,0,0-4,2,3,3,0,0,0,1.49,4A3.31,3.31,0,0,0,246.46,64a3.13,3.13,0,0,0-1.68-4.26c-.47-.22-.87.47-.41.69a2.36,2.36,0,0,1,1.39,3.17,2.52,2.52,0,0,1-3.4,1.27,2.21,2.21,0,0,1-1-2.79,2.53,2.53,0,0,1,3.1-1.61C245,60.63,245.19,59.85,244.68,59.74Z"/><path class="cls-2" d="M257.72,59.74a3.34,3.34,0,0,0-4,2,3,3,0,0,0,1.5,4A3.31,3.31,0,0,0,259.5,64a3.13,3.13,0,0,0-1.68-4.26c-.47-.22-.87.47-.41.69a2.36,2.36,0,0,1,1.39,3.17,2.52,2.52,0,0,1-3.4,1.27,2.21,2.21,0,0,1-1-2.79,2.53,2.53,0,0,1,3.1-1.61C258,60.63,258.23,59.85,257.72,59.74Z"/><path class="cls-2" d="M270.77,59.74a3.34,3.34,0,0,0-4,2,3,3,0,0,0,1.5,4A3.31,3.31,0,0,0,272.54,64a3.13,3.13,0,0,0-1.68-4.26c-.47-.22-.87.47-.41.69a2.36,2.36,0,0,1,1.39,3.17,2.52,2.52,0,0,1-3.4,1.27,2.21,2.21,0,0,1-1-2.79,2.53,2.53,0,0,1,3.1-1.61C271.06,60.63,271.27,59.85,270.77,59.74Z"/><path class="cls-2" d="M283.81,59.74a3.34,3.34,0,0,0-4,2,3,3,0,0,0,1.5,4A3.31,3.31,0,0,0,285.58,64a3.13,3.13,0,0,0-1.68-4.26c-.47-.22-.87.47-.41.69a2.36,2.36,0,0,1,1.39,3.17,2.52,2.52,0,0,1-3.4,1.27,2.21,2.21,0,0,1-1-2.79,2.53,2.53,0,0,1,3.1-1.61C284.1,60.63,284.31,59.85,283.81,59.74Z"/><path class="cls-2" d="M296.85,59.74a3.34,3.34,0,0,0-4,2,3,3,0,0,0,1.5,4A3.31,3.31,0,0,0,298.63,64a3.13,3.13,0,0,0-1.68-4.26c-.47-.22-.87.47-.41.69a2.36,2.36,0,0,1,1.39,3.17,2.52,2.52,0,0,1-3.4,1.27,2.21,2.21,0,0,1-1-2.79,2.53,2.53,0,0,1,3.1-1.61C297.14,60.63,297.35,59.85,296.85,59.74Z"/><path class="cls-2" d="M215,80.09c14.27-.43,28.52.86,42.78.84,7.08,0,14.15-.33,21.23-.52,3.54-.09,7.08-.12,10.61-.05,3,.06,5.93.48,8.83-.28a.4.4,0,0,0-.21-.77c-3.1.81-6.42.29-9.59.23-3.54-.07-7.07,0-10.61.1-7.08.19-14.16.49-21.24.5-13.94,0-27.86-1.26-41.81-.84-.52,0-.52.82,0,.8Z"/><path class="cls-2" d="M216,87.54c14.27-.43,28.52.86,42.78.84,7.08,0,14.15-.33,21.23-.52,3.54-.09,7.07-.12,10.61-.05,3,.06,5.93.48,8.84-.28a.4.4,0,0,0-.21-.77c-3.1.81-6.42.29-9.59.23-3.54-.07-7.07,0-10.61.1-7.08.19-14.16.49-21.24.5-13.94,0-27.86-1.26-41.81-.84-.52,0-.52.82,0,.8Z"/><path class="cls-2" d="M216,95c14.27-.43,28.52.86,42.78.84,7.08,0,14.15-.33,21.23-.52,3.54-.09,7.07-.12,10.61-.05,3,.06,5.93.48,8.84-.28a.4.4,0,0,0-.21-.77c-3.1.81-6.42.29-9.59.23-3.54-.07-7.07,0-10.61.1-7.08.19-14.16.49-21.24.5-13.94,0-27.86-1.26-41.81-.84-.52,0-.52.82,0,.8Z"/><path class="cls-2" d="M216,102.45c14.27-.43,28.52.86,42.78.84,7.08,0,14.15-.33,21.23-.52,3.54-.09,7.07-.12,10.61-.05,3,.06,5.93.48,8.84-.28a.4.4,0,0,0-.21-.77c-3.1.81-6.42.29-9.59.23-3.54-.07-7.07,0-10.61.1-7.08.19-14.16.49-21.24.5-13.94,0-27.86-1.26-41.81-.84-.52,0-.52.82,0,.8Z"/><path class="cls-2" d="M216.95,109.44c14.27-.43,28.52.86,42.78.84,7.08,0,14.15-.33,21.23-.52,3.54-.09,7.07-.12,10.61-.05,3,.06,5.93.48,8.83-.28a.4.4,0,0,0-.21-.77c-3.1.81-6.42.29-9.59.23-3.54-.07-7.07,0-10.61.1-7.08.19-14.16.49-21.24.5-13.94,0-27.86-1.26-41.81-.84-.52,0-.52.82,0,.8Z"/><path class="cls-2" d="M216.95,117.36c14.27-.43,28.52.86,42.78.84,7.08,0,14.15-.33,21.23-.52,3.54-.09,7.07-.12,10.61-.05,3,.06,5.93.48,8.83-.28a.4.4,0,0,0-.21-.77c-3.1.81-6.42.29-9.59.23-3.54-.07-7.07,0-10.61.1-7.08.19-14.16.48-21.24.49-13.94,0-27.86-1.26-41.81-.84-.52,0-.52.82,0,.8Z"/><path class="cls-2" d="M218.62,124.81c14.27-.43,28.52.86,42.78.84,7.08,0,14.15-.33,21.23-.52,3.54-.09,7.07-.12,10.61-.05,3,.06,5.93.48,8.84-.28a.4.4,0,0,0-.21-.77c-3.1.81-6.42.29-9.59.23-3.54-.07-7.07,0-10.61.1-7.08.19-14.16.49-21.24.5-13.94,0-27.86-1.26-41.81-.84-.52,0-.52.82,0,.8Z"/><path class="cls-2" d="M218.62,132.27c14.27-.43,28.52.86,42.78.84,7.08,0,14.15-.33,21.23-.52,3.54-.09,7.07-.12,10.61-.05,3,.06,5.93.48,8.84-.28a.4.4,0,0,0-.21-.77c-3.1.81-6.42.29-9.59.23-3.54-.07-7.07,0-10.61.1-7.08.19-14.16.49-21.24.5-13.94,0-27.86-1.26-41.81-.84-.52,0-.52.82,0,.8Z"/><path class="cls-2" d="M226.77,139.63c11.93-.36,23.79.95,35.71.93,7.08,0,14.15-.33,21.22-.52,3.54-.09,7.07-.12,10.61-.05,3,.06,5.93.48,8.83-.28a.4.4,0,0,0-.21-.77c-3.1.81-6.42.29-9.59.23-3.54-.07-7.07,0-10.61.1-7.07.19-14.13.49-21.2.49-11.61,0-23.15-1.29-34.77-.94-.52,0-.52.82,0,.8Z"/><path class="cls-1" d="M407.22,194.19c-1.1,21.23-1.93,42.18-2.21,63.13,0,10.47,1.1,21.36-.28,31.84-22.33-1.1-45.74,2.88-68.07.12,1.38-10.47,0-21.5,0-32,.28-21,1.1-41.9,2.21-63.13Z"/><path class="cls-2" d="M406.81,194.19c-.85,16.45-1.55,32.91-2,49.38-.2,8.12-.28,16.21,0,24.33.12,3.88.22,7.76.16,11.64,0,1.93-.13,3.86-.27,5.79-.07,1-.17,1.92-.28,2.87s-2.9.43-3.45.41c-15.82-.45-31.6,1.3-47.42,1.25q-5.66,0-11.31-.43c-.73-.05-5.22,0-5.09-1.08.27-2.17.38-4.36.46-6.55.27-7.86-.46-15.72-.54-23.58-.17-16.37.74-32.82,1.47-49.17q.27-6,.57-11.9c0-.36.28-2.58-.17-2.58h68.25a.4.4,0,0,0,0-.8l-68.2,0h-.12a.41.41,0,0,0-.4.4c-.83,16.12-1.52,32.25-1.92,48.39-.19,7.72-.38,15.43-.07,23.15s.74,15.73-.23,23.56c0,.24.21.38.4.4,22.65,2.7,45.37-1.17,68.07-.12a.41.41,0,0,0,.4-.4c1-7.7.69-15.45.45-23.19s-.08-15.58.11-23.38c.39-16.14,1.09-32.27,1.93-48.39C407.64,193.67,406.84,193.68,406.81,194.19Z"/><path class="cls-2" d="M406.95,194.28l4.46,7.53c.49.82.23,3.19.25,4.35.13,6.41.1,12.82.09,19.22,0,17.05-.2,34.11-.37,51.16q-.08,7.91-.16,15.83c0,.51,0,1,0,1.54s.43-.13-.2-.15l-1.72,0c-3-.07-6.09-.08-9.13-.1-16.45-.09-32.91,0-49.36.12l-6.13,0c-.67,0-.41-.05-1.17-.58a75.11,75.11,0,0,0-6.63-4.26c-.46-.25-.86.44-.41.69,2,1.11,3.95,2.42,5.86,3.73.47.32,1.32,1.23,1.94,1.22l3.79,0,20.23-.11c14.42-.06,28.91-.42,43.33.14a.4.4,0,0,0,.4-.4c0-27.7.74-55.41.51-83.11,0-2.86,0-5.73-.18-8.58a7.06,7.06,0,0,0-1.44-3.1l-3.27-5.51a.4.4,0,0,0-.69.41Z"/><path class="cls-2" d="M407.76,195.37c.32,16.25-.26,32.5-.08,48.75.09,8-.29,16-.77,23.95-.11,1.8-.49,21.93.13,21.92l-34.2.51-32.72.49a.4.4,0,0,0,0,.8l66.93-1h0a.41.41,0,0,0,.4-.4,71.16,71.16,0,0,0,0-10.63,111.89,111.89,0,0,1,.26-11.68c.46-8,.85-15.93.77-23.95-.17-16.25.4-32.5.08-48.75a.4.4,0,0,0-.8,0Z"/><path class="cls-2" d="M409.91,199.17c.3,15-.31,30-.15,44.94.09,8-.29,16-.77,23.95-.43,7.08.13,14,.25,21,0,.47-.32,2.91.25,2.9h-.29l-1.73,0-6.87.11-22.27.35-35.17.55a.4.4,0,0,0,0,.8l66.35-1a.41.41,0,0,0,.4-.4c.67-6.73-.58-13.62-.32-20.4.32-8.36,1-16.66,1-25-.08-15.93.44-31.86.12-47.79a.4.4,0,0,0-.8,0Z"/><path class="cls-2" d="M408.26,194.69a15.62,15.62,0,0,1,.16-6.41c1-3.67,5.3-2.32,7.26-.27,3.31,3.46,2.64,9.95,2.43,14.31-.28,5.57-.34,11.15-.45,16.73q-.52,26.06-.88,52.13c0,2.48-.07,5-.08,7.45,0,.38,0,.75,0,1.12s.6-.1.2-.1h-5.13a.4.4,0,0,0,0,.8h5.34a.41.41,0,0,0,.4-.4c0-14.77.4-29.55.66-44.32q.22-12.05.47-24.1c.14-6.21,1-12.74,0-18.87-.71-4-3.64-8.25-8.26-7.55-3.89.59-3.23,7.1-2.85,9.69.07.51.85.29.78-.21Z"/><path class="cls-2" d="M415.07,186.41c-1-1.17-2.8-1.63-4.25-2a54.42,54.42,0,0,0-8.21-1.33c-8-.85-16.15-1-24.22-1.06-13.17-.11-26.33.36-39.5.72-1.8,0-2.4,2.88-2.76,4.33-.77,3.06.17,6.11,3,7.66.46.25.86-.44.41-.69-3-1.67-3.25-4.84-2.31-7.86.38-1.23.66-2.61,1.92-2.65l5.66-.19c7.18-.23,14.36-.41,21.54-.5,8.64-.1,17.29-.07,25.93.3,6.38.28,13.19.44,19.34,2.31a6.21,6.21,0,0,1,2.9,1.53c.34.39.91-.18.57-.57Z"/></g></svg>