<svg xmlns="http://www.w3.org/2000/svg" viewBox="0 0 800 800"><defs><style>.cls-1{isolation:isolate;}.cls-2{fill:#f4f4f4;}.cls-3{opacity:0.5;}.cls-4{fill:#77a4c6;}.cls-5{opacity:0.3;mix-blend-mode:multiply;}.cls-6,.cls-8{fill:#4d4d4d;}.cls-7{fill:#fff;}.cls-8{font-size:32.95px;font-family:Amatic-Bold, Amatic Bold;font-weight:700;}.cls-9{letter-spacing:0em;}.cls-10{letter-spacing:-0.01em;}</style></defs><title>Tesoura</title><g class="cls-1"><g id="background"><rect class="cls-2" y="0.4" width="800" height="798.57"/><rect class="cls-2" y="0.72" width="800" height="798.57"/><g class="cls-3"><rect class="cls-4" y="34.85" width="800" height="3.99"/><rect class="cls-4" y="75.2" width="800" height="3.99"/><rect class="cls-4" y="115.55" width="800" height="3.99"/><rect class="cls-4" y="155.9" width="800" height="3.99"/><rect class="cls-4" y="196.25" width="800" height="3.99"/><rect class="cls-4" y="236.6" width="800" height="3.99"/><rect class="cls-4" y="276.95" width="800" height="3.99"/><rect class="cls-4" y="317.3" width="800" height="3.99"/><rect class="cls-4" y="357.65" width="800" height="3.99"/><rect class="cls-4" y="398" width="800" height="3.99"/><rect class="cls-4" y="438.35" width="800" height="3.99"/><rect class="cls-4" y="478.7" width="800" height="3.99"/><rect class="cls-4" y="519.05" width="800" height="3.99"/><rect class="cls-4" y="559.41" width="800" height="3.99"/><rect class="cls-4" y="599.76" width="800" height="3.99"/><rect class="cls-4" y="640.11" width="800" height="3.99"/><rect class="cls-4" y="680.46" width="800" height="3.99"/><rect class="cls-4" y="720.81" width="800" height="3.99"/><rect class="cls-4" y="761.16" width="800" height="3.99"/></g><g class="cls-5"><rect class="cls-4" x="761.16" width="3.99" height="800"/><rect class="cls-4" x="34.85" width="3.99" height="800"/></g></g><g id="objects"><g id="Freepik_Sign" data-name="Freepik Sign"><path class="cls-6" d="M288.49,753.26V753a6.52,6.52,0,0,1-1,1,3.81,3.81,0,0,1-1.1.57,4,4,0,0,1-1.3.2,3.83,3.83,0,0,1-1.72-.39,4,4,0,0,1-1.37-1.13,5.08,5.08,0,0,1-.88-1.72,7.35,7.35,0,0,1-.3-2.14,5.57,5.57,0,0,1,1.19-3.79,4,4,0,0,1,3.12-1.36,4.2,4.2,0,0,1,1.89.38,5.3,5.3,0,0,1,1.5,1.18V742a1.93,1.93,0,0,1,.32-1.21,1.08,1.08,0,0,1,.91-.41,1.12,1.12,0,0,1,.91.38,1.67,1.67,0,0,1,.32,1.11v11.44a1.59,1.59,0,0,1-.34,1.11,1.15,1.15,0,0,1-.88.37,1.13,1.13,0,0,1-.88-.38A1.59,1.59,0,0,1,288.49,753.26Zm-5.1-3.81a4.43,4.43,0,0,0,.33,1.79,2.5,2.5,0,0,0,.9,1.12,2.22,2.22,0,0,0,1.24.38,2.29,2.29,0,0,0,1.25-.36,2.44,2.44,0,0,0,.9-1.09,4.41,4.41,0,0,0,.34-1.84,4.3,4.3,0,0,0-.34-1.78,2.68,2.68,0,0,0-.91-1.14,2.19,2.19,0,0,0-1.26-.39,2.13,2.13,0,0,0-1.27.4,2.59,2.59,0,0,0-.87,1.16A4.6,4.6,0,0,0,283.39,749.45Z" transform="translate(0 0.4)"/><path class="cls-6" d="M299.93,750.11h-5.07a3.43,3.43,0,0,0,.36,1.56A2.38,2.38,0,0,0,297.4,753a3.13,3.13,0,0,0,.85-.11,2.79,2.79,0,0,0,.75-.34,5.54,5.54,0,0,0,.66-.5l.79-.72a.86.86,0,0,1,.57-.17.93.93,0,0,1,.64.22.78.78,0,0,1,.25.62,1.7,1.7,0,0,1-.28.82,3.27,3.27,0,0,1-.83.9,4.7,4.7,0,0,1-1.4.72,6,6,0,0,1-1.93.29,5.17,5.17,0,0,1-3.88-1.42,5.3,5.3,0,0,1-1.39-3.87,6.44,6.44,0,0,1,.34-2.13,4.71,4.71,0,0,1,1-1.69,4.32,4.32,0,0,1,1.62-1.08,5.8,5.8,0,0,1,2.13-.37,5,5,0,0,1,2.61.64,4.22,4.22,0,0,1,1.63,1.66,4.37,4.37,0,0,1,.54,2.07c0,.65-.19,1.08-.56,1.27A3.49,3.49,0,0,1,299.93,750.11Zm-5.07-1.47h4.7a3.15,3.15,0,0,0-.72-2,2.14,2.14,0,0,0-1.64-.66,2.08,2.08,0,0,0-1.59.67A3.34,3.34,0,0,0,294.85,748.63Z" transform="translate(0 0.4)"/><path class="cls-6" d="M311.74,751.35a3,3,0,0,1-2.07,3,6.94,6.94,0,0,1-2.48.39,6.05,6.05,0,0,1-2.39-.43,3.48,3.48,0,0,1-1.47-1.07,2.16,2.16,0,0,1-.48-1.29,1,1,0,0,1,.3-.73,1,1,0,0,1,.77-.3.9.9,0,0,1,.63.2,2.17,2.17,0,0,1,.42.56,2.85,2.85,0,0,0,1,1,2.89,2.89,0,0,0,1.52.34,2.19,2.19,0,0,0,1.28-.35,1,1,0,0,0,.5-.79,1.07,1.07,0,0,0-.52-1,6.38,6.38,0,0,0-1.71-.6,14,14,0,0,1-2.18-.7,3.57,3.57,0,0,1-1.34-1,2.21,2.21,0,0,1-.5-1.47,2.6,2.6,0,0,1,.47-1.47,3.2,3.2,0,0,1,1.37-1.11,5.25,5.25,0,0,1,2.19-.41,7.12,7.12,0,0,1,1.81.21,4.43,4.43,0,0,1,1.34.56,2.73,2.73,0,0,1,.82.78,1.52,1.52,0,0,1,.28.84,1,1,0,0,1-.3.73,1.19,1.19,0,0,1-.85.29,1,1,0,0,1-.68-.23,4.45,4.45,0,0,1-.64-.68,2.33,2.33,0,0,0-.69-.61,2.18,2.18,0,0,0-1.08-.23,2.11,2.11,0,0,0-1.17.3.87.87,0,0,0-.47.74.81.81,0,0,0,.34.67,2.79,2.79,0,0,0,.92.43q.58.17,1.6.42a8.63,8.63,0,0,1,2,.7,3.28,3.28,0,0,1,1.16,1A2.14,2.14,0,0,1,311.74,751.35Z" transform="translate(0 0.4)"/><path class="cls-6" d="M314.39,743a1.37,1.37,0,0,1-.93-.33,1.29,1.29,0,0,1,0-1.85,1.32,1.32,0,0,1,.92-.36,1.35,1.35,0,0,1,.89.32,1.15,1.15,0,0,1,.39.94,1.18,1.18,0,0,1-.38.94A1.31,1.31,0,0,1,314.39,743Zm1.28,2.68v7.49a1.67,1.67,0,0,1-.37,1.18,1.23,1.23,0,0,1-.94.4,1.17,1.17,0,0,1-.93-.41,1.72,1.72,0,0,1-.36-1.17v-7.42a1.66,1.66,0,0,1,.36-1.16,1.2,1.2,0,0,1,.93-.39,1.24,1.24,0,0,1,.94.39A1.51,1.51,0,0,1,315.67,745.67Z" transform="translate(0 0.4)"/><path class="cls-6" d="M327,746.1v7.53a7.89,7.89,0,0,1-.28,2.22,3.53,3.53,0,0,1-.88,1.54,3.7,3.7,0,0,1-1.59.9,8.62,8.62,0,0,1-2.45.29,7.12,7.12,0,0,1-2.39-.37,4.18,4.18,0,0,1-1.62-1,1.77,1.77,0,0,1-.57-1.22,1,1,0,0,1,.32-.77,1.1,1.1,0,0,1,.78-.3,1.28,1.28,0,0,1,1,.5l.43.52a2.49,2.49,0,0,0,.49.45,2,2,0,0,0,.65.28,3.9,3.9,0,0,0,.87.09,3.53,3.53,0,0,0,1.56-.28,1.59,1.59,0,0,0,.78-.78,3.13,3.13,0,0,0,.26-1.08q0-.57.06-1.85a4.24,4.24,0,0,1-1.38,1.27,3.77,3.77,0,0,1-1.87.44,3.94,3.94,0,0,1-2.28-.67,4.24,4.24,0,0,1-1.5-1.86,6.85,6.85,0,0,1-.52-2.76,6.55,6.55,0,0,1,.32-2.11,4.44,4.44,0,0,1,.91-1.59,3.9,3.9,0,0,1,1.36-1,4.26,4.26,0,0,1,1.69-.33,4.1,4.1,0,0,1,1.91.42,4.67,4.67,0,0,1,1.5,1.33v-.35a1.51,1.51,0,0,1,.33-1,1.1,1.1,0,0,1,.86-.37,1,1,0,0,1,1,.49A3.2,3.2,0,0,1,327,746.1Zm-7.51,3.29a3.58,3.58,0,0,0,.69,2.38,2.23,2.23,0,0,0,1.78.81,2.33,2.33,0,0,0,1.22-.35,2.54,2.54,0,0,0,.94-1,3.66,3.66,0,0,0,.36-1.7,3.89,3.89,0,0,0-.7-2.47,2.23,2.23,0,0,0-1.84-.88,2.15,2.15,0,0,0-1.78.85A3.78,3.78,0,0,0,319.52,749.38Z" transform="translate(0 0.4)"/><path class="cls-6" d="M331.15,745.63v.31a4.52,4.52,0,0,1,1.5-1.32,4,4,0,0,1,1.87-.42,3.73,3.73,0,0,1,1.83.45,2.84,2.84,0,0,1,1.21,1.26,3,3,0,0,1,.33,1,10.58,10.58,0,0,1,.08,1.41v4.82a1.71,1.71,0,0,1-.36,1.18,1.28,1.28,0,0,1-1.87,0,1.7,1.7,0,0,1-.36-1.17v-4.32a4.32,4.32,0,0,0-.36-2,1.45,1.45,0,0,0-1.42-.68,2.1,2.1,0,0,0-1.26.41,2.38,2.38,0,0,0-.84,1.13,8.13,8.13,0,0,0-.19,2.17v3.25a1.69,1.69,0,0,1-.37,1.18,1.23,1.23,0,0,1-.94.39,1.17,1.17,0,0,1-.92-.41,1.71,1.71,0,0,1-.36-1.17v-7.49a1.63,1.63,0,0,1,.32-1.11,1.12,1.12,0,0,1,.88-.37,1.21,1.21,0,0,1,.62.16,1.18,1.18,0,0,1,.44.48A1.71,1.71,0,0,1,331.15,745.63Z" transform="translate(0 0.4)"/><path class="cls-6" d="M346.93,750.11h-5.07a3.44,3.44,0,0,0,.36,1.56A2.38,2.38,0,0,0,344.4,753a3.14,3.14,0,0,0,.85-.11,2.82,2.82,0,0,0,.75-.34,5.74,5.74,0,0,0,.67-.5l.79-.72a.85.85,0,0,1,.57-.17.94.94,0,0,1,.65.22.78.78,0,0,1,.25.62,1.68,1.68,0,0,1-.28.82,3.24,3.24,0,0,1-.83.9,4.69,4.69,0,0,1-1.4.72,6,6,0,0,1-1.93.29,5.18,5.18,0,0,1-3.89-1.42,5.31,5.31,0,0,1-1.39-3.87,6.45,6.45,0,0,1,.34-2.13,4.7,4.7,0,0,1,1-1.69,4.32,4.32,0,0,1,1.61-1.08,5.8,5.8,0,0,1,2.13-.37,5,5,0,0,1,2.61.64,4.23,4.23,0,0,1,1.63,1.66,4.37,4.37,0,0,1,.54,2.07c0,.65-.19,1.08-.56,1.27A3.49,3.49,0,0,1,346.93,750.11Zm-5.07-1.47h4.7a3.15,3.15,0,0,0-.72-2,2.14,2.14,0,0,0-1.64-.66,2.08,2.08,0,0,0-1.59.67A3.34,3.34,0,0,0,341.86,748.63Z" transform="translate(0 0.4)"/><path class="cls-6" d="M357.5,753.26V753a6.5,6.5,0,0,1-1,1,3.81,3.81,0,0,1-1.1.57,4,4,0,0,1-1.3.2,3.83,3.83,0,0,1-1.72-.39,4,4,0,0,1-1.37-1.13,5.09,5.09,0,0,1-.88-1.72,7.33,7.33,0,0,1-.3-2.14,5.57,5.57,0,0,1,1.19-3.79,4,4,0,0,1,3.13-1.36,4.2,4.2,0,0,1,1.89.38,5.29,5.29,0,0,1,1.5,1.18V742a1.94,1.94,0,0,1,.32-1.21,1.08,1.08,0,0,1,.91-.41,1.12,1.12,0,0,1,.91.38,1.68,1.68,0,0,1,.32,1.11v11.44a1.59,1.59,0,0,1-.34,1.11,1.15,1.15,0,0,1-.88.37,1.13,1.13,0,0,1-.88-.38A1.59,1.59,0,0,1,357.5,753.26Zm-5.1-3.81a4.42,4.42,0,0,0,.33,1.79,2.49,2.49,0,0,0,.9,1.12,2.22,2.22,0,0,0,1.24.38,2.29,2.29,0,0,0,1.25-.36,2.44,2.44,0,0,0,.9-1.09,4.41,4.41,0,0,0,.34-1.84,4.3,4.3,0,0,0-.34-1.78,2.68,2.68,0,0,0-.91-1.14,2.19,2.19,0,0,0-1.26-.39,2.13,2.13,0,0,0-1.27.4,2.59,2.59,0,0,0-.87,1.16A4.61,4.61,0,0,0,352.4,749.45Z" transform="translate(0 0.4)"/><path class="cls-6" d="M368.09,741.82v4a6,6,0,0,1,1.49-1.16,4,4,0,0,1,1.88-.4,4.18,4.18,0,0,1,2.27.61,4,4,0,0,1,1.51,1.78,6.54,6.54,0,0,1,.54,2.76,7.4,7.4,0,0,1-.3,2.16,5.13,5.13,0,0,1-.87,1.71,4,4,0,0,1-1.38,1.12,4.06,4.06,0,0,1-1.79.39,4.26,4.26,0,0,1-1.13-.14,3.22,3.22,0,0,1-.9-.37,4.1,4.1,0,0,1-.63-.48q-.26-.25-.69-.74v.26a1.57,1.57,0,0,1-.35,1.11,1.17,1.17,0,0,1-.89.37,1.11,1.11,0,0,1-.88-.37,1.64,1.64,0,0,1-.33-1.11V741.94a1.9,1.9,0,0,1,.32-1.19,1.07,1.07,0,0,1,.89-.4,1.14,1.14,0,0,1,.92.38A1.66,1.66,0,0,1,368.09,741.82Zm.12,7.7a3.56,3.56,0,0,0,.71,2.38,2.32,2.32,0,0,0,1.86.83,2.13,2.13,0,0,0,1.69-.85,3.71,3.71,0,0,0,.71-2.44,4.78,4.78,0,0,0-.29-1.77,2.57,2.57,0,0,0-.84-1.14,2.07,2.07,0,0,0-1.26-.4,2.26,2.26,0,0,0-1.32.4,2.69,2.69,0,0,0-.91,1.17A4.56,4.56,0,0,0,368.22,749.53Z" transform="translate(0 0.4)"/><path class="cls-6" d="M379.14,755.06l.24-.58-3.19-8a3,3,0,0,1-.29-1,1.18,1.18,0,0,1,.17-.62,1.26,1.26,0,0,1,.47-.46,1.23,1.23,0,0,1,.62-.17,1,1,0,0,1,.85.36,3.25,3.25,0,0,1,.5,1L380.7,752l2.08-5.94a10.23,10.23,0,0,1,.45-1.13,1.32,1.32,0,0,1,.42-.55,1.17,1.17,0,0,1,.63-.14,1.1,1.1,0,0,1,.57.16,1.08,1.08,0,0,1,.42.42,1.15,1.15,0,0,1,.15.56c0,.12-.07.29-.12.51s-.13.45-.21.67l-3.38,8.85a10.35,10.35,0,0,1-.86,1.83,2.8,2.8,0,0,1-1.11,1,4.06,4.06,0,0,1-1.86.36,4.52,4.52,0,0,1-1.71-.25.9.9,0,0,1-.57-.9.87.87,0,0,1,.27-.69,1.16,1.16,0,0,1,.8-.24,1.44,1.44,0,0,1,.41.06,2,2,0,0,0,.43.06,1.53,1.53,0,0,0,.7-.13,1.23,1.23,0,0,0,.46-.46A7,7,0,0,0,379.14,755.06Z" transform="translate(0 0.4)"/><path class="cls-6" d="M416.7,744.42h.62v-.78a5,5,0,0,1,.31-1.94,2,2,0,0,1,1-1,5.09,5.09,0,0,1,2-.33c1.52,0,2.27.37,2.27,1.11a.87.87,0,0,1-.24.62.73.73,0,0,1-.56.26,3.71,3.71,0,0,1-.53-.06,4.77,4.77,0,0,0-.62-.06.91.91,0,0,0-.9.42,2.9,2.9,0,0,0-.2,1.18v.62h.63c1,0,1.48.3,1.48.9,0,.42-.13.69-.39.8a2.8,2.8,0,0,1-1.09.17h-.63v6.87a1.66,1.66,0,0,1-.37,1.17,1.2,1.2,0,0,1-.94.41,1.18,1.18,0,0,1-.92-.41,1.67,1.67,0,0,1-.36-1.17v-6.87h-.71a1.34,1.34,0,0,1-.89-.26.83.83,0,0,1-.31-.68c0-.62.43-.93,1.3-.93" transform="translate(0 0.4)"/><path class="cls-6" d="M425.19,751v2.17a1.68,1.68,0,0,1-.37,1.18,1.22,1.22,0,0,1-.94.39,1.17,1.17,0,0,1-.93-.4,1.71,1.71,0,0,1-.36-1.17v-7.22q0-1.75,1.26-1.75a1.06,1.06,0,0,1,.93.41,2.28,2.28,0,0,1,.32,1.21,4.54,4.54,0,0,1,.95-1.21,2,2,0,0,1,1.31-.41,3.32,3.32,0,0,1,1.59.41,1.22,1.22,0,0,1,.77,1.08,1,1,0,0,1-.33.78,1,1,0,0,1-.71.31,3.27,3.27,0,0,1-.69-.18,3.35,3.35,0,0,0-1-.17,1.43,1.43,0,0,0-.93.3,1.94,1.94,0,0,0-.56.89,6.78,6.78,0,0,0-.27,1.4c0,.54-.07,1.2-.07,2" transform="translate(0 0.4)"/><path class="cls-6" d="M437.11,750.1H432a3.5,3.5,0,0,0,.36,1.56,2.49,2.49,0,0,0,.92,1,2.45,2.45,0,0,0,1.27.34,2.91,2.91,0,0,0,.85-.11,2.68,2.68,0,0,0,.74-.34,4.91,4.91,0,0,0,.66-.5c.2-.17.47-.42.79-.72a.86.86,0,0,1,.57-.17.94.94,0,0,1,.65.22.77.77,0,0,1,.24.62,1.71,1.71,0,0,1-.27.82,3.26,3.26,0,0,1-.84.91,4.84,4.84,0,0,1-1.4.71,6,6,0,0,1-1.93.29,5.17,5.17,0,0,1-3.89-1.42,5.32,5.32,0,0,1-1.39-3.87,6.4,6.4,0,0,1,.35-2.13,4.59,4.59,0,0,1,1-1.69,4.26,4.26,0,0,1,1.61-1.08,5.78,5.78,0,0,1,2.13-.37,5,5,0,0,1,2.61.65,4.15,4.15,0,0,1,1.63,1.65,4.36,4.36,0,0,1,.54,2.07,1.29,1.29,0,0,1-.56,1.27,3.48,3.48,0,0,1-1.58.29M432,748.63h4.7a3.13,3.13,0,0,0-.71-2,2.15,2.15,0,0,0-1.64-.66,2.07,2.07,0,0,0-1.59.67,3.32,3.32,0,0,0-.76,2" transform="translate(0 0.4)"/><path class="cls-6" d="M447.9,750.1h-5.07a3.47,3.47,0,0,0,.35,1.56,2.49,2.49,0,0,0,.92,1,2.44,2.44,0,0,0,1.27.34,2.86,2.86,0,0,0,.84-.11,2.69,2.69,0,0,0,.75-.34,4.91,4.91,0,0,0,.66-.5l.79-.72a.86.86,0,0,1,.57-.17.94.94,0,0,1,.65.22.78.78,0,0,1,.24.62,1.64,1.64,0,0,1-.27.82,3.06,3.06,0,0,1-.83.91,4.8,4.8,0,0,1-1.4.71,6,6,0,0,1-1.93.29,5.18,5.18,0,0,1-3.89-1.42,5.32,5.32,0,0,1-1.39-3.87,6.35,6.35,0,0,1,.35-2.13,4.67,4.67,0,0,1,1-1.69,4.27,4.27,0,0,1,1.61-1.08,5.81,5.81,0,0,1,2.13-.37,5.06,5.06,0,0,1,2.61.65,4.14,4.14,0,0,1,1.62,1.65,4.39,4.39,0,0,1,.55,2.07,1.3,1.3,0,0,1-.56,1.27,3.5,3.5,0,0,1-1.58.29m-5.07-1.47h4.7a3.17,3.17,0,0,0-.71-2,2.16,2.16,0,0,0-1.64-.66,2.08,2.08,0,0,0-1.59.67,3.3,3.3,0,0,0-.75,2" transform="translate(0 0.4)"/><path class="cls-6" d="M453.58,745.65V746a5,5,0,0,1,1.53-1.32,3.65,3.65,0,0,1,1.78-.43,4.19,4.19,0,0,1,2.21.62,4.28,4.28,0,0,1,1.59,1.81,6.33,6.33,0,0,1,.59,2.81,7,7,0,0,1-.34,2.2,4.93,4.93,0,0,1-.93,1.68,4.1,4.1,0,0,1-1.39,1,4.17,4.17,0,0,1-1.73.36,3.6,3.6,0,0,1-1.87-.45,5.34,5.34,0,0,1-1.44-1.3v3.89c0,1.13-.42,1.71-1.24,1.71a1,1,0,0,1-1-.44,2.88,2.88,0,0,1-.23-1.29V745.66a1.65,1.65,0,0,1,.32-1.11,1.14,1.14,0,0,1,.88-.36,1.17,1.17,0,0,1,.9.37,1.54,1.54,0,0,1,.35,1.09m5.08,3.77a4.48,4.48,0,0,0-.31-1.76,2.57,2.57,0,0,0-.87-1.13,2.08,2.08,0,0,0-1.23-.4,2.31,2.31,0,0,0-1.81.84,3.69,3.69,0,0,0-.74,2.49,3.58,3.58,0,0,0,.74,2.41,2.27,2.27,0,0,0,1.81.86,2.12,2.12,0,0,0,1.2-.37,2.55,2.55,0,0,0,.88-1.13,4.49,4.49,0,0,0,.33-1.81" transform="translate(0 0.4)"/><path class="cls-6" d="M463.88,743a1.36,1.36,0,0,1-.92-.34,1.28,1.28,0,0,1,0-1.85,1.33,1.33,0,0,1,.91-.36,1.36,1.36,0,0,1,.89.32,1.17,1.17,0,0,1,.39.95,1.2,1.2,0,0,1-.38.94,1.34,1.34,0,0,1-.91.34m1.28,2.68v7.5a1.66,1.66,0,0,1-.37,1.17,1.22,1.22,0,0,1-.94.4,1.17,1.17,0,0,1-.93-.41,1.75,1.75,0,0,1-.36-1.17v-7.43a1.67,1.67,0,0,1,.36-1.15,1.19,1.19,0,0,1,.93-.39,1.23,1.23,0,0,1,.94.39,1.51,1.51,0,0,1,.37,1.08" transform="translate(0 0.4)"/><path class="cls-6" d="M473.52,753.55l-2.28-3.77-1.41,1.33v2.07a1.57,1.57,0,0,1-.4,1.15,1.21,1.21,0,0,1-.91.41,1.16,1.16,0,0,1-.94-.4,1.76,1.76,0,0,1-.34-1.17V742.1a2.24,2.24,0,0,1,.33-1.31,1.11,1.11,0,0,1,1-.45,1.19,1.19,0,0,1,.95.41,1.8,1.8,0,0,1,.35,1.2v6.29l2.92-3.06a7.15,7.15,0,0,1,.83-.78,1.14,1.14,0,0,1,.69-.21,1.15,1.15,0,0,1,.82.31,1,1,0,0,1,.32.77c0,.38-.35.89-1.05,1.52L473,748.06l2.66,4.18c.19.31.34.54.42.71a1,1,0,0,1,.13.46,1.36,1.36,0,0,1-.34,1,1.17,1.17,0,0,1-.88.35,1,1,0,0,1-.73-.26,6.43,6.43,0,0,1-.7-.93" transform="translate(0 0.4)"/><path class="cls-6" d="M479.16,754.74a1.46,1.46,0,0,1-1-.38,1.34,1.34,0,0,1-.43-1.06,1.37,1.37,0,0,1,.41-1,1.36,1.36,0,0,1,1-.42,1.44,1.44,0,0,1,1,.41,1.47,1.47,0,0,1,0,2.06,1.44,1.44,0,0,1-1,.38" transform="translate(0 0.4)"/><path class="cls-6" d="M492.06,751.53a2.23,2.23,0,0,1-.29,1,3.46,3.46,0,0,1-.89,1.05,4.5,4.5,0,0,1-1.49.8,6.34,6.34,0,0,1-2,.31,5,5,0,0,1-3.76-1.4,5.22,5.22,0,0,1-1.35-3.76,6.16,6.16,0,0,1,.62-2.82,4.43,4.43,0,0,1,1.78-1.89,6.08,6.08,0,0,1,4.65-.37,4.89,4.89,0,0,1,1.43.76,3.71,3.71,0,0,1,.89,1,2,2,0,0,1,.31,1,1,1,0,0,1-.34.79,1.2,1.2,0,0,1-.84.32.86.86,0,0,1-.54-.17,2.41,2.41,0,0,1-.48-.54,3.88,3.88,0,0,0-1-1.08,2.44,2.44,0,0,0-3.17.54,3.9,3.9,0,0,0-.7,2.46,4.73,4.73,0,0,0,.18,1.35,3,3,0,0,0,.52,1,2.26,2.26,0,0,0,.83.65,2.45,2.45,0,0,0,1.06.23,2.4,2.4,0,0,0,1.34-.36,3.08,3.08,0,0,0,1-1.1,2.6,2.6,0,0,1,.51-.68,1,1,0,0,1,.68-.25,1,1,0,0,1,.79.36,1.15,1.15,0,0,1,.32.77" transform="translate(0 0.4)"/><path class="cls-6" d="M503.25,749.47a6.31,6.31,0,0,1-.36,2.14,4.74,4.74,0,0,1-1,1.68,4.65,4.65,0,0,1-1.63,1.08,5.86,5.86,0,0,1-2.14.38,5.59,5.59,0,0,1-2.12-.38,4.64,4.64,0,0,1-1.62-1.08,4.85,4.85,0,0,1-1.05-1.68,6.68,6.68,0,0,1,0-4.29,4.55,4.55,0,0,1,2.67-2.74,5.85,5.85,0,0,1,2.12-.37,5.72,5.72,0,0,1,2.14.38,4.57,4.57,0,0,1,2.68,2.75,6.26,6.26,0,0,1,.35,2.14m-2.6,0a3.9,3.9,0,0,0-.7-2.47,2.25,2.25,0,0,0-1.87-.89,2.34,2.34,0,0,0-1.34.39,2.47,2.47,0,0,0-.89,1.16,4.75,4.75,0,0,0-.31,1.8,4.66,4.66,0,0,0,.31,1.77,2.56,2.56,0,0,0,.89,1.17,2.32,2.32,0,0,0,1.35.4,2.25,2.25,0,0,0,1.88-.89,3.88,3.88,0,0,0,.7-2.45" transform="translate(0 0.4)"/><path class="cls-6" d="M513.14,749.66v3.45a1.77,1.77,0,0,1-.37,1.23,1.26,1.26,0,0,1-1,.41,1.2,1.2,0,0,1-1-.41,1.78,1.78,0,0,1-.37-1.23V749a13.79,13.79,0,0,0-.06-1.53,1.67,1.67,0,0,0-.36-.88,1.15,1.15,0,0,0-.93-.35,1.65,1.65,0,0,0-1.68.88,6.15,6.15,0,0,0-.41,2.51v3.5a1.83,1.83,0,0,1-.36,1.22,1.34,1.34,0,0,1-1.93,0,1.76,1.76,0,0,1-.38-1.22v-7.42a1.62,1.62,0,0,1,.34-1.11,1.13,1.13,0,0,1,.89-.38,1.23,1.23,0,0,1,.89.36,1.34,1.34,0,0,1,.35,1v.24a4.53,4.53,0,0,1,1.45-1.18,3.74,3.74,0,0,1,1.71-.39,3.4,3.4,0,0,1,1.68.39,3.09,3.09,0,0,1,1.16,1.18,4.6,4.6,0,0,1,1.41-1.18,3.57,3.57,0,0,1,1.66-.39,3.82,3.82,0,0,1,1.83.42,2.68,2.68,0,0,1,1.15,1.2,5.54,5.54,0,0,1,.33,2.22v5.06a1.78,1.78,0,0,1-.37,1.23,1.36,1.36,0,0,1-1.94,0,1.77,1.77,0,0,1-.38-1.22v-4.36a10.45,10.45,0,0,0-.07-1.34,1.55,1.55,0,0,0-.38-.85,1.25,1.25,0,0,0-1-.34,1.76,1.76,0,0,0-1,.31,2.09,2.09,0,0,0-.72.81,6.63,6.63,0,0,0-.28,2.32" transform="translate(0 0.4)"/><path class="cls-6" d="M392.44,748.84v0Z" transform="translate(0 0.4)"/><path class="cls-6" d="M392.57,749.67h0c0-.24-.09-.47-.12-.7Q392.5,749.32,392.57,749.67Z" transform="translate(0 0.4)"/><path class="cls-6" d="M393.42,752.08l0,0Z" transform="translate(0 0.4)"/><path class="cls-6" d="M393.34,751.92l-.07-.13Z" transform="translate(0 0.4)"/><path class="cls-6" d="M392.81,750.6a8.88,8.88,0,0,0,.46,1.16,8.82,8.82,0,0,1-.45-1.16Z" transform="translate(0 0.4)"/><path class="cls-6" d="M402.47,738.9a7.15,7.15,0,0,1,1.29.11l.12-.76a8,8,0,0,0-2.71-.23l-.12-.41a1.06,1.06,0,1,0-.44,0l.13.46a10.77,10.77,0,0,0-2.93.86l.23.71a12.72,12.72,0,0,1,2.62-.61A17.52,17.52,0,0,1,402.47,738.9Z" transform="translate(0 0.4)"/><path class="cls-6" d="M393.41,742.76h0l.11-.14-.31-.22-.49-.36a7.26,7.26,0,0,0-1.4,2l-.09-.12a1,1,0,0,0-.76-.29h0a.62.62,0,0,1-.43-.15.67.67,0,1,0-.53.26l.17,0a1,1,0,0,0,.81.33.55.55,0,0,1,.44.16.73.73,0,0,1,.16.43h0a7.27,7.27,0,0,0-.31,2.67l1.06,0a8,8,0,0,1,.37-2.23A10.44,10.44,0,0,1,393.41,742.76Z" transform="translate(0 0.4)"/><path class="cls-6" d="M411.67,739.79a.67.67,0,0,0-.67.67.57.57,0,0,0,0,.16,1,1,0,0,0-.34.81.54.54,0,0,1-.15.44.69.69,0,0,1-.29.14,8.11,8.11,0,0,0-1.76-1.78l-.76.81a11.78,11.78,0,0,1,1.73,2,14,14,0,0,1,1.14,2l1-.49a15.48,15.48,0,0,0-1.12-2.19,1,1,0,0,0,.33-.19.94.94,0,0,0,.29-.76.64.64,0,0,1,.15-.44.68.68,0,0,0,.41.14.67.67,0,1,0,0-1.34Z" transform="translate(0 0.4)"/><path class="cls-6" d="M409,749a22.8,22.8,0,0,1-6.78,2,25,25,0,0,1-3.43.23,28.69,28.69,0,0,1-3.56-.22c-1.08-.13-1.92-.3-2.43-.42a8.82,8.82,0,0,0,.45,1.16v0l.07.13.06.13,0,0a7.59,7.59,0,0,0,1.08,1.55,5.66,5.66,0,0,0,2.92,1.83h0a11.56,11.56,0,0,0,3.29.43,14.39,14.39,0,0,0,5.67-1.17,9.25,9.25,0,0,0,3.25-2.67,7.46,7.46,0,0,0,1.05-2.29,5.94,5.94,0,0,0,.15-1.83A15.82,15.82,0,0,1,409,749Z" transform="translate(0 0.4)"/><path class="cls-6" d="M393.86,743.1a10.24,10.24,0,0,0-1.14,2.25,8.43,8.43,0,0,0-.35,2.46h0a9,9,0,0,0,.06,1v0s0,.08,0,.13c0,.23.07.47.12.7a26.88,26.88,0,0,0,9.55.5,21.94,21.94,0,0,0,6.5-1.93,14.07,14.07,0,0,0,2.12-1.24,14,14,0,0,0-1.74-3.65c-2-2.87-4.17-3.6-5.28-3.78a7.13,7.13,0,0,0-1.24-.11,17.08,17.08,0,0,0-1.74.12,11.73,11.73,0,0,0-2.53.6,9.77,9.77,0,0,0-3.53,2l0,0A6.91,6.91,0,0,0,393.86,743.1Zm12.27-.67a1.74,1.74,0,1,1-1.74,1.74A1.75,1.75,0,0,1,406.13,742.43Zm-8.24-.07a2.82,2.82,0,1,1-2.82,2.82A2.82,2.82,0,0,1,397.89,742.36Z" transform="translate(0 0.4)"/></g><path class="cls-6" d="M592.73,124.6c-6.4-.1-12.81-.24-19.2,0-4.62.18-7-.72-6.12-4.57a11.23,11.23,0,0,0,.16-2.6c0-10.75-.06-21.5,0-32.25,0-2.08-.81-3-3.85-3.27-7.87-.56-15.67-1.68-23.54-2.18C518.07,78.35,496,76.58,473.86,76c-27.63-.69-55.31-.19-83-.44-40.26-.35-80.43.63-120.46,4.1-6.79.59-13.66.89-20.5.9-6.61,0-6.72-.23-6.74,4.73,0,11.62-.14,23.24.19,34.85.1,3.45-1.15,4.6-5.69,4.45-6.84-.23-13.72-.13-20.57,0-5.5.11-7.07,1.84-6.3,6a36.29,36.29,0,0,1,.46,6.18c.11,10.77.23,21.54.18,32.31,0,3.16.9,4.92,5.82,4.52,3.59-.29,7.29.29,10.95.29,16,0,32,.25,47.91-.27,11.55-.38,17.08-5.53,17.07-14.34,0-6.95.08-13.9-.24-20.85-.14-3.06.95-4.32,5.21-4.46,13.24-.44,26.45-1.53,39.69-1.71,22.39-.3,44.8-.08,67.2-.08v-.09c2.29,0,4.57,0,6.86,0,33.38-.58,66.73-.25,100,1.85,4.28.27,5.95,1.15,5.76,4.62-.4,7.46-.23,14.94-.27,22.41,0,4.06,1.49,7.83,6.47,9.67,4.19,1.55,9,3,13.5,3.08,18.93.25,37.88-.15,56.82-.08,4.33,0,4.94-1.57,4.95-4.15.06-10.07.18-20.15.29-30.22a52.53,52.53,0,0,1,.24-8.29C600.56,126.16,599.24,124.7,592.73,124.6ZM218,157.43l18.42,12.72C229,169.78,217.92,161.38,218,157.43Zm.7-7.22a5.46,5.46,0,0,1-.28-4.74l28.2,24.75C243,169.25,220.95,153.58,218.73,150.21Zm34.05,18c-11.26-9.55-22.58-19.06-33.54-28.81-1.62-1.44-1.45-4.05-2.11-6.13l1.81-.33c7.25,6.21,14.4,12.5,21.79,18.61s15,12,22.79,18.27C259.15,171,255.63,170.61,252.78,168.19Zm16.11.16Q245.4,149.13,222,129.86c-.26-.21-.2-.64-.29-1l.9-1.33c2.62,1,5.87,1.51,7.75,3,14.22,11.47,28.17,23.14,42.19,34.75,1.21,1,2.33,2.07,4,3.53C273.42,169.82,271,170.12,268.89,168.35ZM284,166.74c-1.14-.22-2.68-.14-3.36-.69q-21-16.69-41.75-33.52a46.14,46.14,0,0,1-3.66-3.76c7.77-.8,7.89-.82,9.16,4.19.56,2.22,1.65,3.56,4.66,4.52a41.31,41.31,0,0,1,17,10.08c5.65,5.63,11.84,11,17.64,16.5C284.28,164.64,283.89,165.83,284,166.74ZM288,137.52c-.22,4.65-.07,9.32-.07,14.21l-28.45-15.06c8.76-.59,16.83-1.11,24.88-1.68C286.92,134.82,288.13,135.31,288,137.52Zm235.34,13.87c-.21-4.55-.59-9.46-.51-14.37,0-.68,2.27-2,3.41-1.92,8.08.35,16.14,1,24.92,1.56Zm6.89,14.54a22.74,22.74,0,0,1-3.38.92,7.12,7.12,0,0,1,0-2.69,7.15,7.15,0,0,1,1.93-2.12c6.54-6,12.93-12.08,19.73-17.89a31.3,31.3,0,0,1,8.73-4.89c5.16-2,9.85-3.88,10-9.21,0-.83,4.35-1.6,6.69-2.4l1.41,1.76c-3.89,3.3-7.68,6.66-11.69,9.87-10.48,8.41-21.06,16.75-31.59,25.12C531.45,164.9,531,165.61,530.26,165.93Zm3.94,2.7c8.27-6.86,16.38-13.59,24.5-20.31,7.09-5.86,14.37-11.61,21.23-17.62,2.66-2.33,5.45-2.78,10-2.17-2,2.05-3.23,3.53-4.75,4.77q-20.76,16.91-41.62,33.75C541.19,169,538.7,170.64,534.2,168.64Zm40.24,1.46,18.24-12.83C592.72,161.51,581.61,169.86,574.44,170.1Zm17.17-19.61c-8,6.56-16.4,12.9-24.71,19.26-.54.42-1.57.47-3.48,1l28.75-25.22,1,.12C592.69,147.29,592.92,149.43,591.62,150.49Zm0-11.28c-11.14,9.85-22.61,19.5-34,29.18-2.76,2.34-6.19,2.5-10.16,1.56l44.7-37,1.43.49C593,135.4,593.16,137.86,591.64,139.21Z" transform="translate(0 0.4)"/><path class="cls-7" d="M262,90.83l-.06,11.4,6.58-.45.06-11.4,1.78-.12c-.06,10.89-.09,16.34-.15,27.23l-1.78.12.07-12.77-6.58.45-.07,12.77-1.76.13c.06-10.89.09-16.34.15-27.23Z" transform="translate(0 0.4)"/><path class="cls-7" d="M275.54,108.59l-1.46,8.65-1.82.12L277,89.84l2.12-.13,4.49,27-1.88.11-1.41-8.48Zm4.48-3-1.29-7.76c-.29-1.76-.49-3.36-.68-4.93h0c-.21,1.63-.44,3.3-.72,5l-1.38,8Z" transform="translate(0 0.4)"/><path class="cls-7" d="M287.57,89.24l-.15,27.23-1.76.1.15-27.23Z" transform="translate(0 0.4)"/><path class="cls-7" d="M290.64,89.44A9.79,9.79,0,0,1,294,88.7a3.83,3.83,0,0,1,3.93,2,10.71,10.71,0,0,1,1,5.12c0,3.6-1.17,6-2.61,7.07V103c1,.68,1.66,2.59,2,5.4.42,3.77.73,6.39,1,7.43l-1.82.09a60.27,60.27,0,0,1-.87-6.46c-.39-3.73-1.1-5.12-2.7-5.16l-1.66.08-.07,11.8-1.76.09Zm1.69,12.31,1.8-.09c1.88-.09,3.09-2.21,3.1-5.32,0-3.51-1.27-5-3.11-4.94a3.86,3.86,0,0,0-1.74.41Z" transform="translate(0 0.4)"/><path class="cls-7" d="M301.52,88.91a13.23,13.23,0,0,1,3.75-.73,5.59,5.59,0,0,1,5.5,3.17c1.19,2.17,1.89,5.3,1.87,9.7a24.78,24.78,0,0,1-2,10.66,6.94,6.94,0,0,1-6.05,4.17,14.35,14.35,0,0,1-3.19-.18Zm1.62,24a5.59,5.59,0,0,0,1.78.13c3.76-.16,5.82-4.45,5.87-11.79,0-6.41-1.74-10.44-5.46-10.28a5.38,5.38,0,0,0-2.07.45Z" transform="translate(0 0.4)"/><path class="cls-7" d="M315,88.37a9.7,9.7,0,0,1,3.38-.68,3.9,3.9,0,0,1,3.93,2.09,10.8,10.8,0,0,1,1,5.14c0,3.6-1.17,6-2.61,7v.12c1,.69,1.66,2.62,2,5.43.42,3.78.73,6.4,1,7.44l-1.82.06a60.67,60.67,0,0,1-.87-6.47c-.39-3.73-1.1-5.14-2.7-5.2l-1.66.06-.07,11.8-1.76.06Zm1.69,12.34,1.8-.06c1.88-.06,3.09-2.16,3.11-5.27,0-3.51-1.27-5-3.11-5a3.83,3.83,0,0,0-1.74.38Z" transform="translate(0 0.4)"/><path class="cls-7" d="M332.86,101.92l-5.3.14-.06,9.82,5.91-.15,0,2.95-7.67.2.15-27.23,7.37-.2,0,2.95-5.61.15,0,8.6,5.3-.14Z" transform="translate(0 0.4)"/><path class="cls-7" d="M335.46,110.35a4.22,4.22,0,0,0,3.15,1.71c1.8,0,2.87-2,2.88-4.7A5.76,5.76,0,0,0,339,102c-2.14-1.54-3.58-3.8-3.56-7.64,0-4.24,1.8-7.43,4.46-7.49a3.86,3.86,0,0,1,3,1.28l-.5,2.88a3.55,3.55,0,0,0-2.58-1.24c-1.86,0-2.58,2.28-2.59,4.13a5.6,5.6,0,0,0,2.68,5.2c2.29,1.73,3.46,3.93,3.44,7.93,0,4.2-1.6,7.86-4.82,7.93A4.54,4.54,0,0,1,335,113.3Z" transform="translate(0 0.4)"/><path class="cls-7" d="M345.44,110.15a4.25,4.25,0,0,0,3.15,1.73c1.8,0,2.87-1.94,2.88-4.68a5.8,5.8,0,0,0-2.54-5.38c-2.14-1.56-3.58-3.82-3.56-7.66,0-4.24,1.8-7.42,4.46-7.46a3.89,3.89,0,0,1,3,1.3l-.5,2.87a3.57,3.57,0,0,0-2.59-1.26c-1.86,0-2.58,2.26-2.6,4.12a5.64,5.64,0,0,0,2.68,5.21c2.29,1.75,3.46,4,3.44,8,0,4.2-1.6,7.85-4.82,7.9a4.58,4.58,0,0,1-3.47-1.68Z" transform="translate(0 0.4)"/><path class="cls-7" d="M357.56,87.06c-.06,10.89-.09,16.33-.15,27.22l-1.76,0c.06-10.89.09-16.34.15-27.23Z" transform="translate(0 0.4)"/><path class="cls-7" d="M360.48,114.26c.06-10.89.09-16.33.15-27.22h1.92l4.3,13.76c1,3.19,1.77,6.06,2.4,8.84l0,0c-.14-3.64-.16-6.95-.14-11.19L369.22,87h1.66l-.15,27.22h-1.78l-4.25-13.8c-.93-3-1.83-6.13-2.5-9.08l-.06,0c.08,3.43.1,6.7.08,11.23l-.07,11.63Z" transform="translate(0 0.4)"/><path class="cls-7" d="M384.2,113.08a7.5,7.5,0,0,1-4.2,1.46c-2.07,0-3.77-1.07-5.08-3.62-1.16-2.26-1.88-5.91-1.85-10.14.06-8.11,2.89-14.06,7.47-14a5.07,5.07,0,0,1,3.4,1.28l-.44,2.86a4.3,4.3,0,0,0-3-1.19c-3.32,0-5.51,4.09-5.55,10.92s2,11,5.2,11a3.33,3.33,0,0,0,2.35-.71l0-8.12-2.77,0,0-2.83,4.5,0Z" transform="translate(0 0.4)"/><path class="cls-7" d="M391,110.08a4.41,4.41,0,0,0,3.15,1.82c1.8,0,2.87-1.85,2.88-4.6a6,6,0,0,0-2.54-5.45c-2.15-1.62-3.58-3.93-3.56-7.77,0-4.24,1.8-7.37,4.46-7.33a4,4,0,0,1,3,1.38l-.5,2.86a3.7,3.7,0,0,0-2.58-1.34c-1.86,0-2.59,2.18-2.6,4A5.82,5.82,0,0,0,395.36,99c2.3,1.81,3.46,4.06,3.44,8.06,0,4.2-1.6,7.8-4.82,7.75A4.74,4.74,0,0,1,390.5,113Z" transform="translate(0 0.4)"/><path class="cls-7" d="M403.42,106,402,114.55l-1.82,0,4.79-27.12,2.13,0,4.5,27.34-1.88,0-1.41-8.6Zm4.49-2.64-1.29-7.87c-.29-1.78-.49-3.4-.68-5h0c-.21,1.61-.44,3.26-.72,4.91l-1.38,7.85Z" transform="translate(0 0.4)"/><path class="cls-7" d="M413.72,87.61l1.76.05-.14,24.27,5.83.18,0,2.95-7.6-.23Z" transform="translate(0 0.4)"/><path class="cls-7" d="M434.07,101.65c-.05,9.37-2.94,14.22-6.42,14.09s-6.11-5.79-6.06-14c0-8.64,2.78-14.21,6.42-14.07S434.12,93.57,434.07,101.65Zm-10.6,0c0,5.82,1.52,11.08,4.29,11.18s4.4-5,4.44-11.14c0-5.41-1.35-11.12-4.29-11.23S423.51,95.71,423.48,101.69Z" transform="translate(0 0.4)"/><path class="cls-7" d="M436.28,115.63l.15-27.22,1.92.08,4.3,14c1,3.24,1.77,6.14,2.4,9l0,0c-.14-3.64-.16-7-.14-11.19L445,88.81l1.66.08c-.06,10.89-.09,16.33-.15,27.22l-1.78-.09-4.26-14c-.94-3.07-1.83-6.22-2.5-9.2l-.06,0c.08,3.44.1,6.71.08,11.23l-.07,11.63Z" transform="translate(0 0.4)"/><path class="cls-7" d="M461,104.13l-5.31-.3-.06,9.81,5.91.34,0,2.95-7.68-.43c.06-10.89.09-16.33.15-27.22l7.37.42,0,2.95-5.61-.32,0,8.6,5.31.3Z" transform="translate(0 0.4)"/><path class="cls-7" d="M464,89.84l1.76.11-.14,24.27,5.83.37,0,2.95-7.59-.48C463.92,106.17,464,100.73,464,89.84Z" transform="translate(0 0.4)"/><path class="cls-7" d="M480.55,105.4l-5.3-.37-.06,9.81,5.91.41,0,2.95-7.67-.53c.06-10.89.09-16.33.15-27.21l7.37.51,0,2.95-5.61-.39,0,8.6,5.3.37Z" transform="translate(0 0.4)"/><path class="cls-7" d="M494.94,107.3c-.08-3.8-.18-8.38-.14-11.76h-.06c-.48,3.15-1.07,6.5-1.78,10.2l-2.48,13-1.34-.1L487,105.51c-.63-3.88-1.15-7.44-1.52-10.7h0c-.06,3.39-.19,7.94-.33,12l-.43,11.64-1.68-.12,1.11-27.14,2.25.17,2.25,13.34c.55,3.39,1,6.42,1.32,9.27H490c.36-2.72.86-5.67,1.49-9.05L494,92l2.25.18.7,27.28-1.72-.14Z" transform="translate(0 0.4)"/><path class="cls-7" d="M506.78,107.49l-5.3-.46-.06,9.81,5.91.51,0,2.95-7.67-.66.15-27.21,7.36.64,0,2.95-5.6-.49,0,8.6,5.3.46Z" transform="translate(0 0.4)"/><path class="cls-7" d="M509.59,120.51l.15-27.21,1.92.17L516,107.65c1,3.29,1.77,6.23,2.4,9.07l0,0c-.14-3.65-.16-7-.14-11.2l.06-11.38,1.66.16-.15,27.21L518,121.3l-4.25-14.22c-.93-3.12-1.83-6.31-2.5-9.32l-.06,0c.08,3.44.1,6.71.08,11.24l-.07,11.63Z" transform="translate(0 0.4)"/><path class="cls-7" d="M525.62,97.81l-4.14-.41,0-3c4,.4,6.05.6,10.09,1l0,3L527.4,98l-.14,24.22-1.78-.18Z" transform="translate(0 0.4)"/><path class="cls-7" d="M540.07,110.8l-5.29-.57-.06,9.81,5.9.64,0,2.95-7.66-.83.15-27.21,7.36.8,0,2.95-5.6-.61,0,8.6,5.29.57Z" transform="translate(0 0.4)"/><path class="cls-7" d="M542.66,119.58a5,5,0,0,0,3.14,2.13c1.8.21,2.86-1.57,2.87-4.31a6.63,6.63,0,0,0-2.53-5.7,9.86,9.86,0,0,1-3.55-8.12c0-4.24,1.8-7.19,4.45-6.89a4.49,4.49,0,0,1,3,1.68l-.5,2.81A4.16,4.16,0,0,0,547,99.59c-1.86-.21-2.58,1.93-2.59,3.78,0,2.54.81,3.89,2.68,5.56,2.29,2,3.45,4.4,3.43,8.4,0,4.2-1.6,7.65-4.81,7.28a5.32,5.32,0,0,1-3.46-2.13Z" transform="translate(0 0.4)"/><text class="cls-8" transform="translate(317.52 64.68)">Hand d<tspan class="cls-9" x="99.8" y="0">r</tspan><tspan class="cls-10" x="110.41" y="0">a</tspan><tspan x="126.03" y="0">wn </tspan></text><path class="cls-6" d="M626.84,399.91a4.62,4.62,0,0,0-3-2.18,46.88,46.88,0,0,0-7.62-.8q-42.49-1.77-85-3.49-33.09-1.39-66.18-2.9c-9.62-.43-19.23-.94-28.85-1.41l0-.68c.91-.48,1.81-1,2.74-1.43Q484.4,365.49,530,344q37.36-17.64,74.7-35.31c1.28-.61,3-2.32,2.9-3.31-.17-1.32-1.73-2.92-3.09-3.55-6.21-2.89-12.89-2.5-19.53-2.3-13.48.41-26.92,2.06-39,8q-35.14,17.37-69.49,36.34c-21.78,12-43.07,24.88-64.57,37.37-4.27,2.48-8.77,4.85-13.81,3.87a34.52,34.52,0,0,0-16.46,1.13c-1.1.31-3.26.24-3.49-.28-1.3-3-3.87-2.6-6.23-2.77a234.79,234.79,0,0,1-55.18-11.27,9.81,9.81,0,0,1-5.41-5.25,79.6,79.6,0,0,0-15-24.95c-1.89-2.15-3.95-4.44-6.42-5.75-10.71-5.71-22.4-6.22-33.52-2.76-9,2.81-16.51,9.35-23.1,16.33-5.24,5.56-6.89,12.72-8.36,20S222.45,384,227,390.65c3.91,5.72,6.93,12.39,14.5,14.27,9.35,2.32,18.66,5.36,28.17,6.31,10.56,1.05,21.32.12,32,0,6-.06,11.94-.19,17.91-.29a3.89,3.89,0,0,1-2.27,1.75A230.31,230.31,0,0,0,255.41,444c-11,7.76-16,24.09-11.2,36.74.89,2.36,2.13,4.59,2.87,6.16-3.66,6.16-7.34,11.78-10.42,17.71a27.64,27.64,0,0,0-2.42,19,6.22,6.22,0,0,0,3.24,3.55c.59.29,2.44-1.22,3.22-2.27,5.26-7.15,11.13-13.9,20.09-15.82a87.77,87.77,0,0,1,22.12-1.92c10.65.47,20.29-1.67,29.19-7.38,5.16-3.31,10.29-7,11.89-13.16a241,241,0,0,0,4.95-25.19c.86-5.85,2.47-10.66,7.4-14.64A327.48,327.48,0,0,1,374.93,420c3.69-2.19,8.86-3.47,9.59-9.52,7.66,2,13.85-1.5,20.13-4.87a7.22,7.22,0,0,1,3.71-.71c7.61.49,15.26.72,22.79,1.78,13.23,1.88,26.32,4.74,39.57,6.39,22.48,2.81,45.06,4.84,67.56,7.49,19.78,2.33,39.31,2.4,58.84-2.51,10.86-2.73,19.86-8.23,28.35-15C626.32,402.42,627.16,400.68,626.84,399.91ZM516.43,325.79c10.94-5.61,21.65-11.84,33-16.45,14.91-6.06,30.81-7.61,46.88-6.7a27.66,27.66,0,0,1,5,1.23l.39,1.52L507.3,349.23l-.65-1c2.29-6.56,4.5-13.15,6.94-19.65A6.09,6.09,0,0,1,516.43,325.79Zm-19.77,10.55c4.42-2.48,8.91-4.84,14.33-7.75-2.6,7.47-4.78,13.94-7.15,20.33a5.1,5.1,0,0,1-2.41,2.31c-2.77,1.44-5.65,2.68-8.59,4,.89-5.83,1.71-11.41,2.63-17A3,3,0,0,1,496.66,336.34Zm-10,6.37c.43-1.8,3.72-2.92,5.71-4.35l1.1.8c-1.25,5.49-2.24,11.07-3.9,16.43-.52,1.66-2.87,2.75-5,4.71C485.28,353.57,485.42,348,486.69,342.71Zm-3.53.64,1.16.45c-.87,5.51-1.64,11-2.73,16.5-.18.91-1.77,1.54-3,2.55.72-6.07,1.27-11.57,2.12-17C480.85,344.91,482.31,344.18,483.17,343.35Zm-4.51,2.56c-1,6.46-1.8,12-2.83,17.44-.14.73-1.49,1.35-2.4,1.78q-23.08,11.11-46.22,22.11a11.8,11.8,0,0,1-5,1.06c-4.93-.06-9.85-.39-15.66-.66ZM289.93,408c-13.31.09-26.29-2.64-39.28-5.3-7.43-1.52-13.49-4.56-18.06-10.7-3.67-4.94-6.1-10.14-4.92-16.44,1.38-7.4,2.5-14.84,6.92-21.34,4.26-6.27,10.53-10,16.53-14.11,10.85-7.35,22.6-6.81,34.41-2.95,5.68,1.86,9,6.77,12.38,11.36a84,84,0,0,1,10.9,20.15c.88,2.37,4,4.66,6.55,5.52A231.6,231.6,0,0,0,373.23,386c.46,0,.9.17,2,.38-.16,4.36-.2,8.52-.5,12.65-.18,2.58-1.25,4.1-4.45,3.79-6.93-.67-13.91-.93-20.87-1.28a20.44,20.44,0,0,0-3.59.44l.05,1.45,26.25,1.7.12,1.09a19.46,19.46,0,0,1-3.61.73C342.43,407.33,316.18,407.81,289.93,408Zm78.34,11.25a252.07,252.07,0,0,0-38.8,27.67,9.65,9.65,0,0,0-3.65,8.59,66.47,66.47,0,0,1-4.81,30,22.92,22.92,0,0,1-6.35,8.47c-7.62,6.59-16.51,9.28-26.76,8.59-12-.81-24.14-.37-34.86,6-5.39,3.2-10,7.7-15.19,11.77a21.33,21.33,0,0,1,2.4-14.46,86.69,86.69,0,0,1,10-14.5c2.29-2.73,2.79-4.59.63-7.52-3.73-5-6.31-10.53-5.22-17.15,1.2-7.31,3.47-14.35,9.55-18.78,14.75-10.76,30.28-20.29,47.49-26.76,7.72-2.9,15.36-6,23.14-8.73a29.23,29.23,0,0,1,9.13-1.7c11.49-.14,23,.08,34.48.05,2.7,0,5.39-.63,8.08-.61.92,0,1.84,1.1,3.26,2C376.11,414.82,372.17,417,368.26,419.24Zm101.63-12.8c-.8.62-2.48.31-3.71.15-16.48-2.13-33-4.24-49.43-6.5a30.21,30.21,0,0,0-18.57,3c-8.65,4.46-12.34,4.64-21.76,2l2.05-16.27,104.32,5.62.55.89C478.87,399.08,474.48,402.89,469.89,406.44Zm16.93-11.38c-4.24,7.6-9.23,12.09-13.08,12.08Zm-6.47,13.89-.34-1c3.48-4.09,6.66-8.53,10.61-12.09,1.45-1.31,4.75-.56,7.21-.74l.5,1.1c-4,3.68-7.77,7.56-12,10.94C484.86,408.35,482.39,408.38,480.36,408.95Zm7.94.32c4.59-4.5,8.77-8.62,13-12.7a2.38,2.38,0,0,1,1.51-.68c4.11.11,8.22.3,12.32.47l.33.84c-2.11,1.68-4.15,3.46-6.35,5-2.64,1.87-5.76,3.2-8,5.41C497.19,411.38,493.1,410,488.3,409.26Zm127.05-4.18c-20.64,10-42.42,13.09-65.11,10.69-15.24-1.61-30.49-3.16-45.73-4.74-.91-.09-1.82-.24-3.86-.51,3.49-2.3,6.21-4,8.88-5.87,1.91-1.31,4.11-2.43,5.54-4.16,2.89-3.51,6.31-4.35,10.72-4.16,29.68,1.29,59.38,2.36,89.07,3.52,1.95.08,3.88.4,5.82.61l.41,1A54.53,54.53,0,0,1,615.35,405.09Z" transform="translate(0 0.4)"/><path class="cls-6" d="M315.43,455.26c-.62-5.5-3.13-9.64-8.7-11.42-4.49-1.44-9-2.36-13.63-.63-3.37,1.25-6.8,2.37-10.11,3.75-9.15,3.8-17.79,8.45-25.26,15.09-1.94,1.73-2.05,3.63-1.49,6,2,8.45,8.09,14.14,12.62,19.43,5,3.82,9.22,6.62,14.48,6.62,6.39,0,12.64-.63,18.74-3.13,8.27-3.39,15.14-13.23,14.59-22.16C316.38,464.26,315.93,459.76,315.43,455.26Zm-6.16,23.62a7.73,7.73,0,0,1-1.27,2.61c-11.37,10.94-29.38,14.57-40.55-.16a125.42,125.42,0,0,1-7.5-11.6c-1.17-2-.5-3.66,1.46-5,10.35-7.21,21.22-13.35,33.7-16,9.25-2,15.42,2,16,11.33C311.44,466.24,310,472.59,309.26,478.88Z" transform="translate(0 0.4)"/><path class="cls-6" d="M297.76,497.42c-4.53,1.05-9.43.53-14.17.75-1.19.05-2.37.3-3.55.46,10.31,4.89,31.2-.15,32.36-8.06-1,.56-1.72,1-2.45,1.32C305.91,493.81,302,496.43,297.76,497.42Z" transform="translate(0 0.4)"/><path class="cls-6" d="M246.59,509.41l17.69-7.25C259,499.56,246.59,505.17,246.59,509.41Z" transform="translate(0 0.4)"/><path class="cls-6" d="M293.45,356.66a20.76,20.76,0,0,0-18.37-12.49,41.87,41.87,0,0,0-20.61,4.16c-15.08,7.17-19.19,19-14.82,34.61,1.05,3.74,3.46,5.61,7,6.37a122.56,122.56,0,0,0,35.65,2.4,20.09,20.09,0,0,0,13-6.22c4.19-4.86,4.89-5.68,3.89-10C297.76,369.12,296.21,362.57,293.45,356.66Zm-2.24,28.55a20.71,20.71,0,0,1-8.82,3.58,94.59,94.59,0,0,1-32.55-1.59c-1.88-.42-3.58-3-4.77-5-3.88-6.39-3-18.31,1.44-23.35,7.21-8.16,23.22-12.22,33.47-8.42a14.39,14.39,0,0,1,8.29,8.06c2.6,6.06,5,12.25,7,18.53C296.43,380.65,293.79,383.41,291.21,385.2Z" transform="translate(0 0.4)"/><path class="cls-6" d="M248.62,399.91c11.84,3,24,3.25,36.06,3.67l.15-1.42-36.07-3.56Z" transform="translate(0 0.4)"/><path class="cls-6" d="M384.67,394.84c-1.39,1.64-1.07,3.23.57,4.5,2,1.51,4,2.38,7.09-.34-.19-1.27,0-3.39-.85-4.86C390.37,392.3,386.32,392.89,384.67,394.84Z" transform="translate(0 0.4)"/></g></g></svg>