<?xml version="1.0" encoding="UTF-8" standalone="no"?>
<!-- Created with Inkscape (http://www.inkscape.org/) -->

<svg
   width="210mm"
   height="297mm"
   viewBox="0 0 210 297"
   version="1.1"
   id="svg1"
   xml:space="preserve"
   xmlns="http://www.w3.org/2000/svg"
   xmlns:svg="http://www.w3.org/2000/svg"><defs
     id="defs1" /><g
     id="layer1"><text
       xml:space="preserve"
       style="font-weight:bold;font-size:104.76px;font-family:'Inter 28pt';-inkscape-font-specification:'Inter 28pt Bold';text-align:start;writing-mode:lr-tb;direction:ltr;text-anchor:start;fill:none;stroke:#000000;stroke-width:6.717;stroke-linecap:round;stroke-linejoin:round;stroke-dasharray:none;stroke-opacity:1"
       x="136.28894"
       y="218.56404"
       id="text1"><tspan
         id="tspan1"
         x="136.28894"
         y="218.56404"
         style="font-style:normal;font-variant:normal;font-weight:normal;font-stretch:normal;font-size:104.76px;font-family:'BBH Hegarty';-inkscape-font-specification:'BBH Hegarty';fill:none;stroke:#000000;stroke-width:6.717;stroke-linecap:round;stroke-linejoin:round;stroke-dasharray:none;stroke-opacity:1">+</tspan></text><path
       style="fill:#000000"
       d="m 31.672816,240.26681 c -6.878785,-6.00715 -2.098327,-16.05554 -3.598762,-23.88943 -0.09723,-46.06778 -0.08333,-92.13577 0.01907,-138.203525 2.094401,-10.79968 15.936746,-4.713071 23.513349,-6.202387 17.698459,0.424185 35.53618,-1.131543 53.133147,1.15672 8.4165,1.166859 16.10666,5.267257 23.26515,9.605621 8.81988,5.718695 -1.50166,15.978451 -8.34824,8.742837 -9.7869,-7.312657 -22.569047,-8.463617 -34.412039,-7.917034 -14.67274,-0.04344 -29.347762,0.19378 -44.018535,-0.142939 -2.047932,4.166202 -2.008665,57.278567 -1.756919,140.364627 -2.577809,8.10991 8.482404,5.2696 13.542927,5.20745 3.089802,-8.49623 0.181283,-19.93082 1.563703,-29.55409 2.291352,-65.59627 66.806283,-97.81585 65.959823,-77.83483 -4.17316,11.10402 -41.441324,17.40847 -52.328518,61.41592 -4.293132,17.73527 -1.514584,36.04001 -3.097273,54.01778 -7.739322,6.03599 -23.396226,4.90086 -33.436891,3.23328 z m 57.017707,-46.10226 c -9.651609,0.46077 -19.624842,-9.11313 -16.319142,-19.01818 1.881093,-7.4991 9.661247,-11.21527 16.853368,-11.34053 10.674057,-1.14395 21.599841,-3.98163 29.645881,-11.51758 13.05633,-11.05968 20.18641,-27.33051 26.3591,-42.81435 -7.41041,-7.46885 -91.247143,-3.68132 -82.592966,45.17213 3.489905,8.85808 -10.539073,13.29683 -11.320228,3.28064 -6.54851,-47.06249 46.68091,-71.850385 104.815664,-59.433844 9.26849,6.636254 -3.71474,15.861804 -2.31055,24.071324 6.11034,58.8733 -42.75477,72.72669 -65.131127,71.60039 z m 9.657292,-11.59302 c 19.716025,-2.38486 38.599265,-16.27602 43.321935,-36.09657 1.50782,-12.63087 -8.36763,24.07426 -48.31725,28.36938 -8.213062,1.49491 -18.459878,10.73915 4.995315,7.72723 z"
       id="path1" /></g></svg>
